<svg width="200" height="138" viewBox="0 0 200 138" fill="none" xmlns="http://www.w3.org/2000/svg" xmlns:xlink="http://www.w3.org/1999/xlink">
<path d="M121.092,106.715C68.351,137.165 15.706,144.718 3.505,123.585C-8.696,102.452 24.167,60.636 76.908,30.186C129.649,-0.264 182.294,-7.817 194.495,13.316C206.697,34.449 173.832,76.265 121.092,106.715ZM78.23,32.476C28.646,61.104 -2.25,100.417 9.22,120.285C20.691,140.153 70.186,133.052 119.769,104.424C169.353,75.797 200.25,36.484 188.779,16.616C177.309,-3.252 127.814,3.849 78.23,32.476Z" fill="#0E1947"/>
<path d="M121.092,106.715L121.876,108.074L121.092,106.715ZM3.504,123.585L4.863,122.801L3.504,123.585ZM76.908,30.187L77.692,31.545L76.908,30.187ZM194.495,13.317L195.854,12.532L194.495,13.317ZM120.224,105.405C119.474,105.837 119.217,106.797 119.65,107.547C120.082,108.298 121.042,108.555 121.792,108.122L120.224,105.405ZM113.366,112.792C114.131,112.385 114.422,111.435 114.015,110.67C113.608,109.905 112.658,109.615 111.893,110.022L113.366,112.792ZM111.726,110.111C110.961,110.517 110.67,111.467 111.076,112.232C111.482,112.997 112.432,113.288 113.197,112.882L111.726,110.111ZM104.612,117.247C105.391,116.869 105.715,115.93 105.337,115.151C104.958,114.372 104.019,114.047 103.24,114.426L104.612,117.247ZM103.069,114.509C102.29,114.887 101.964,115.826 102.343,116.605C102.721,117.384 103.659,117.71 104.439,117.331L103.069,114.509ZM95.699,121.375C96.492,121.026 96.852,120.1 96.503,119.307C96.154,118.514 95.228,118.154 94.435,118.503L95.699,121.375ZM94.26,118.58C93.467,118.928 93.107,119.854 93.455,120.647C93.803,121.44 94.728,121.801 95.522,121.452L94.26,118.58ZM86.628,125.15C87.435,124.834 87.832,123.924 87.516,123.117C87.199,122.311 86.289,121.914 85.482,122.23L86.628,125.15ZM85.304,122.3C84.498,122.616 84.1,123.526 84.415,124.332C84.731,125.139 85.641,125.537 86.448,125.221L85.304,122.3ZM77.401,128.542C78.22,128.262 78.657,127.37 78.377,126.55C78.096,125.73 77.204,125.293 76.385,125.574L77.401,128.542ZM76.203,125.636C75.383,125.916 74.946,126.807 75.225,127.627C75.505,128.447 76.397,128.885 77.217,128.605L76.203,125.636ZM68.013,131.503C68.846,131.263 69.327,130.394 69.087,129.562C68.847,128.729 67.978,128.249 67.146,128.488L68.013,131.503ZM66.962,128.541C66.129,128.78 65.647,129.649 65.886,130.481C66.125,131.314 66.994,131.796 67.826,131.557L66.962,128.541ZM58.468,133.966C59.313,133.774 59.842,132.934 59.651,132.089C59.459,131.244 58.619,130.715 57.774,130.907L58.468,133.966ZM57.588,130.949C56.743,131.139 56.212,131.979 56.403,132.824C56.594,133.669 57.433,134.2 58.279,134.009L57.588,130.949ZM48.774,135.829C49.63,135.696 50.216,134.894 50.083,134.038C49.95,133.182 49.148,132.596 48.292,132.729L48.774,135.829ZM48.106,132.758C47.25,132.889 46.662,133.69 46.794,134.546C46.926,135.403 47.727,135.99 48.583,135.858L48.106,132.758ZM38.944,136.936C39.808,136.879 40.462,136.132 40.405,135.267C40.348,134.403 39.601,133.748 38.736,133.806L38.944,136.936ZM38.546,133.818C37.681,133.874 37.025,134.62 37.081,135.484C37.136,136.349 37.882,137.005 38.747,136.949L38.546,133.818ZM28.998,137.028C29.863,137.076 30.603,136.413 30.651,135.548C30.698,134.683 30.035,133.943 29.17,133.895L28.998,137.028ZM28.987,133.885C28.122,133.835 27.381,134.496 27.331,135.361C27.281,136.226 27.941,136.967 28.806,137.017L28.987,133.885ZM19.058,135.628C19.9,135.833 20.749,135.317 20.954,134.475C21.159,133.633 20.643,132.785 19.801,132.58L19.058,135.628ZM19.619,132.535C18.778,132.326 17.927,132.838 17.718,133.678C17.509,134.519 18.021,135.37 18.862,135.579L19.619,132.535ZM9.573,131.827C10.312,132.28 11.278,132.049 11.731,131.31C12.184,130.572 11.952,129.606 11.214,129.153L9.573,131.827ZM11.064,129.06C10.329,128.601 9.361,128.825 8.902,129.559C8.443,130.294 8.667,131.262 9.402,131.721L11.064,129.06ZM2.198,124.46C2.636,125.208 3.596,125.46 4.344,125.023C5.092,124.585 5.344,123.625 4.907,122.877L2.198,124.46ZM4.819,122.725C4.39,121.972 3.432,121.71 2.68,122.139C1.927,122.568 1.665,123.526 2.094,124.279L4.819,122.725ZM-0.592,114.41C-0.562,115.276 0.164,115.954 1.03,115.924C1.895,115.894 2.573,115.167 2.543,114.302L-0.592,114.41ZM2.537,114.125C2.514,113.259 1.793,112.575 0.927,112.598C0.061,112.622 -0.622,113.343 -0.599,114.209L2.537,114.125ZM0.796,104.288C0.557,105.121 1.038,105.99 1.87,106.229C2.703,106.468 3.572,105.987 3.811,105.155L0.796,104.288ZM3.864,104.974C4.107,104.143 3.63,103.272 2.798,103.028C1.967,102.785 1.096,103.262 0.852,104.094L3.864,104.974ZM4.523,94.957C4.134,95.731 4.446,96.674 5.22,97.063C5.994,97.452 6.937,97.14 7.326,96.366L4.523,94.957ZM7.408,96.203C7.8,95.43 7.491,94.486 6.718,94.095C5.945,93.703 5.001,94.013 4.61,94.785L7.408,96.203ZM9.552,86.382C9.072,87.103 9.267,88.077 9.988,88.558C10.709,89.038 11.683,88.843 12.163,88.122L9.552,86.382ZM12.269,87.963C12.751,87.243 12.558,86.269 11.838,85.787C11.118,85.305 10.144,85.498 9.662,86.218L12.269,87.963ZM15.415,78.409C14.873,79.085 14.981,80.072 15.657,80.614C16.332,81.157 17.319,81.048 17.862,80.373L15.415,78.409ZM17.98,80.226C18.523,79.551 18.416,78.564 17.741,78.021C17.066,77.477 16.079,77.584 15.536,78.259L17.98,80.226ZM21.864,70.938C21.277,71.574 21.316,72.566 21.953,73.154C22.589,73.742 23.582,73.702 24.169,73.066L21.864,70.938ZM24.299,72.926C24.887,72.29 24.849,71.298 24.213,70.709C23.577,70.121 22.585,70.159 21.996,70.795L24.299,72.926ZM28.762,63.895C28.139,64.497 28.121,65.49 28.723,66.113C29.325,66.736 30.318,66.753 30.941,66.152L28.762,63.895ZM31.079,66.019C31.702,65.418 31.721,64.425 31.12,63.801C30.519,63.177 29.526,63.159 28.902,63.76L31.079,66.019ZM36.013,57.239C35.361,57.809 35.294,58.8 35.865,59.452C36.435,60.104 37.426,60.171 38.078,59.601L36.013,57.239ZM38.222,59.475C38.875,58.905 38.942,57.914 38.373,57.261C37.803,56.609 36.812,56.541 36.16,57.111L38.222,59.475ZM43.559,50.936C42.882,51.477 42.772,52.464 43.313,53.141C43.854,53.817 44.841,53.928 45.517,53.387L43.559,50.936ZM45.667,53.268C46.344,52.727 46.455,51.741 45.915,51.063C45.375,50.386 44.388,50.275 43.711,50.815L45.667,53.268ZM51.36,44.962C50.662,45.475 50.511,46.457 51.024,47.155C51.537,47.853 52.519,48.004 53.217,47.491L51.36,44.962ZM53.371,47.378C54.07,46.865 54.221,45.884 53.708,45.185C53.196,44.487 52.214,44.336 51.516,44.848L53.371,47.378ZM59.387,39.3C58.67,39.786 58.483,40.762 58.968,41.479C59.454,42.196 60.43,42.384 61.147,41.898L59.387,39.3ZM61.305,41.791C62.022,41.306 62.21,40.331 61.725,39.613C61.24,38.895 60.264,38.707 59.547,39.192L61.305,41.791ZM67.62,33.94C66.886,34.4 66.663,35.368 67.122,36.102C67.582,36.836 68.55,37.059 69.284,36.6L67.62,33.94ZM69.445,36.499C70.18,36.04 70.403,35.072 69.944,34.338C69.485,33.603 68.517,33.379 67.783,33.838L69.445,36.499ZM76.04,28.877C75.29,29.31 75.033,30.269 75.466,31.019C75.9,31.77 76.859,32.026 77.609,31.593L76.04,28.877ZM77.775,31.497C78.526,31.064 78.783,30.105 78.35,29.355C77.917,28.604 76.958,28.347 76.207,28.78L77.775,31.497ZM84.633,24.11C83.868,24.517 83.578,25.466 83.985,26.231C84.392,26.996 85.341,27.287 86.106,26.88L84.633,24.11ZM86.274,26.791C87.039,26.384 87.33,25.435 86.924,24.67C86.517,23.904 85.568,23.613 84.803,24.02L86.274,26.791ZM93.388,19.654C92.609,20.033 92.284,20.972 92.663,21.751C93.042,22.53 93.98,22.855 94.759,22.476L93.388,19.654ZM94.931,22.393C95.71,22.015 96.035,21.076 95.657,20.297C95.279,19.517 94.34,19.192 93.561,19.57L94.931,22.393ZM102.301,15.527C101.508,15.876 101.148,16.802 101.497,17.595C101.846,18.388 102.771,18.748 103.564,18.399L102.301,15.527ZM103.739,18.322C104.532,17.974 104.893,17.048 104.545,16.255C104.197,15.462 103.271,15.101 102.478,15.449L103.739,18.322ZM111.371,11.751C110.565,12.068 110.168,12.978 110.484,13.784C110.8,14.591 111.711,14.988 112.517,14.672L111.371,11.751ZM112.695,14.602C113.502,14.286 113.9,13.376 113.584,12.569C113.268,11.763 112.358,11.365 111.552,11.68L112.695,14.602ZM120.599,8.36C119.779,8.64 119.342,9.532 119.623,10.352C119.903,11.171 120.795,11.608 121.615,11.328L120.599,8.36ZM121.796,11.266C122.616,10.986 123.054,10.095 122.774,9.275C122.494,8.455 121.603,8.017 120.783,8.297L121.796,11.266ZM129.986,5.399C129.154,5.638 128.673,6.507 128.913,7.34C129.152,8.172 130.022,8.653 130.854,8.413L129.986,5.399ZM131.038,8.361C131.871,8.122 132.352,7.253 132.113,6.42C131.875,5.588 131.006,5.106 130.173,5.345L131.038,8.361ZM139.532,2.936C138.687,3.127 138.157,3.968 138.349,4.813C138.541,5.657 139.381,6.187 140.226,5.995L139.532,2.936ZM140.412,5.953C141.257,5.763 141.787,4.923 141.596,4.078C141.406,3.233 140.566,2.702 139.721,2.893L140.412,5.953ZM149.226,1.073C148.37,1.206 147.784,2.008 147.917,2.864C148.05,3.72 148.852,4.306 149.708,4.173L149.226,1.073ZM149.894,4.144C150.75,4.012 151.337,3.212 151.205,2.355C151.074,1.499 150.273,0.912 149.417,1.043L149.894,4.144ZM159.056,-0.034C158.192,0.023 157.537,0.77 157.595,1.635C157.652,2.499 158.399,3.153 159.264,3.096L159.056,-0.034ZM159.454,3.084C160.318,3.028 160.974,2.282 160.919,1.418C160.863,0.553 160.117,-0.103 159.253,-0.047L159.454,3.084ZM169.001,-0.126C168.136,-0.174 167.397,0.489 167.349,1.354C167.301,2.219 167.964,2.959 168.829,3.006L169.001,-0.126ZM169.012,3.017C169.877,3.067 170.619,2.406 170.669,1.541C170.719,0.676 170.058,-0.065 169.193,-0.115L169.012,3.017ZM178.941,1.274C178.1,1.069 177.251,1.585 177.046,2.427C176.841,3.268 177.356,4.117 178.198,4.322L178.941,1.274ZM178.381,4.367C179.221,4.576 180.072,4.064 180.281,3.223C180.491,2.383 179.979,1.532 179.138,1.323L178.381,4.367ZM188.426,5.075C187.688,4.622 186.722,4.853 186.269,5.591C185.816,6.33 186.047,7.296 186.786,7.749L188.426,5.075ZM186.936,7.842C187.671,8.301 188.639,8.077 189.098,7.342C189.556,6.608 189.333,5.64 188.598,5.181L186.936,7.842ZM195.801,12.442C195.364,11.694 194.403,11.442 193.655,11.879C192.907,12.316 192.655,13.277 193.093,14.025L195.801,12.442ZM193.18,14.177C193.61,14.93 194.568,15.192 195.32,14.763C196.073,14.333 196.335,13.375 195.906,12.623L193.18,14.177ZM198.592,22.492C198.562,21.626 197.836,20.948 196.97,20.978C196.104,21.008 195.427,21.734 195.457,22.6L198.592,22.492ZM195.462,22.777C195.485,23.643 196.206,24.326 197.072,24.303C197.938,24.28 198.622,23.559 198.598,22.693L195.462,22.777ZM197.204,32.613C197.443,31.781 196.962,30.912 196.129,30.673C195.297,30.433 194.428,30.914 194.188,31.747L197.204,32.613ZM194.136,31.927C193.893,32.759 194.37,33.63 195.201,33.873C196.033,34.116 196.904,33.639 197.147,32.808L194.136,31.927ZM193.477,41.945C193.866,41.171 193.554,40.228 192.78,39.839C192.006,39.449 191.063,39.761 190.674,40.535L193.477,41.945ZM190.591,40.699C190.2,41.472 190.509,42.416 191.282,42.807C192.055,43.199 192.999,42.889 193.39,42.116L190.591,40.699ZM188.447,50.519C188.928,49.798 188.733,48.825 188.012,48.344C187.291,47.864 186.317,48.059 185.837,48.78L188.447,50.519ZM185.731,48.938C185.249,49.658 185.442,50.633 186.162,51.114C186.882,51.596 187.856,51.403 188.338,50.683L185.731,48.938ZM182.585,58.492C183.127,57.817 183.019,56.829 182.343,56.287C181.667,55.745 180.68,55.853 180.138,56.529L182.585,58.492ZM180.02,56.675C179.477,57.35 179.584,58.338 180.259,58.881C180.933,59.424 181.921,59.317 182.464,58.643L180.02,56.675ZM176.135,65.964C176.723,65.328 176.683,64.335 176.047,63.748C175.41,63.16 174.418,63.2 173.83,63.836L176.135,65.964ZM173.701,63.976C173.113,64.612 173.151,65.604 173.787,66.193C174.423,66.781 175.415,66.743 176.004,66.107L173.701,63.976ZM169.238,73.007C169.861,72.405 169.878,71.412 169.277,70.789C168.675,70.166 167.682,70.148 167.059,70.75L169.238,73.007ZM166.921,70.883C166.297,71.484 166.279,72.477 166.88,73.101C167.481,73.725 168.474,73.743 169.098,73.142L166.921,70.883ZM161.986,79.663C162.639,79.093 162.705,78.102 162.135,77.45C161.565,76.797 160.574,76.731 159.922,77.301L161.986,79.663ZM159.777,77.427C159.125,77.997 159.057,78.987 159.627,79.64C160.196,80.293 161.187,80.36 161.84,79.791L159.777,77.427ZM154.44,85.966C155.117,85.425 155.228,84.438 154.687,83.761C154.146,83.084 153.159,82.974 152.482,83.515L154.44,85.966ZM152.333,83.634C151.655,84.174 151.544,85.161 152.084,85.838C152.625,86.516 153.612,86.627 154.289,86.087L152.333,83.634ZM146.64,91.94C147.338,91.427 147.488,90.445 146.975,89.747C146.462,89.048 145.481,88.898 144.782,89.411L146.64,91.94ZM144.629,89.524C143.93,90.036 143.779,91.018 144.291,91.716C144.804,92.415 145.785,92.566 146.484,92.054L144.629,89.524ZM138.612,97.601C139.33,97.115 139.517,96.14 139.031,95.423C138.545,94.706 137.57,94.518 136.853,95.004L138.612,97.601ZM136.695,95.111C135.978,95.596 135.789,96.571 136.275,97.289C136.76,98.006 137.735,98.195 138.453,97.709L136.695,95.111ZM130.38,102.961C131.114,102.502 131.337,101.534 130.877,100.8C130.418,100.065 129.45,99.842 128.716,100.302L130.38,102.961ZM128.555,100.403C127.82,100.862 127.596,101.829 128.055,102.564C128.514,103.299 129.482,103.522 130.217,103.063L128.555,100.403ZM121.96,108.025C122.71,107.592 122.967,106.632 122.533,105.882C122.1,105.132 121.14,104.875 120.39,105.309L121.96,108.025ZM120.307,105.357C120.28,105.373 120.252,105.389 120.224,105.405L121.792,108.122C121.82,108.106 121.848,108.09 121.876,108.074L120.307,105.357ZM111.893,110.022C111.838,110.052 111.782,110.081 111.726,110.111L113.197,112.882C113.253,112.852 113.31,112.822 113.366,112.792L111.893,110.022ZM103.24,114.426C103.183,114.454 103.126,114.481 103.069,114.509L104.439,117.331C104.496,117.303 104.554,117.275 104.612,117.247L103.24,114.426ZM94.435,118.503C94.377,118.529 94.319,118.554 94.26,118.58L95.522,121.452C95.581,121.427 95.64,121.401 95.699,121.375L94.435,118.503ZM85.482,122.23C85.423,122.253 85.364,122.277 85.304,122.3L86.448,125.221C86.508,125.198 86.568,125.174 86.628,125.15L85.482,122.23ZM76.385,125.574C76.324,125.595 76.264,125.615 76.203,125.636L77.217,128.605C77.278,128.584 77.339,128.563 77.401,128.542L76.385,125.574ZM67.146,128.488C67.084,128.506 67.023,128.524 66.962,128.541L67.826,131.557C67.889,131.539 67.951,131.521 68.013,131.503L67.146,128.488ZM57.774,130.907C57.712,130.921 57.65,130.935 57.588,130.949L58.279,134.009C58.342,133.995 58.405,133.98 58.468,133.966L57.774,130.907ZM48.292,132.729C48.23,132.738 48.168,132.748 48.106,132.758L48.583,135.858C48.647,135.849 48.71,135.839 48.774,135.829L48.292,132.729ZM38.736,133.806C38.673,133.81 38.609,133.814 38.546,133.818L38.747,136.949C38.812,136.945 38.878,136.94 38.944,136.936L38.736,133.806ZM29.17,133.895C29.109,133.892 29.048,133.889 28.987,133.885L28.806,137.017C28.87,137.021 28.934,137.024 28.998,137.028L29.17,133.895ZM19.801,132.58C19.741,132.565 19.68,132.55 19.619,132.535L18.862,135.579C18.927,135.595 18.993,135.612 19.058,135.628L19.801,132.58ZM11.214,129.153C11.164,129.122 11.113,129.091 11.064,129.06L9.402,131.721C9.459,131.756 9.516,131.792 9.573,131.827L11.214,129.153ZM4.907,122.877C4.892,122.851 4.878,122.826 4.863,122.801L2.146,124.369C2.163,124.4 2.181,124.43 2.198,124.46L4.907,122.877ZM4.863,122.801C4.848,122.775 4.834,122.75 4.819,122.725L2.094,124.279C2.111,124.309 2.129,124.339 2.146,124.369L4.863,122.801ZM2.543,114.302C2.541,114.243 2.539,114.184 2.537,114.125L-0.599,114.209C-0.597,114.276 -0.595,114.343 -0.592,114.41L2.543,114.302ZM3.811,105.155C3.829,105.095 3.846,105.034 3.864,104.974L0.852,104.094C0.833,104.159 0.815,104.224 0.796,104.288L3.811,105.155ZM7.326,96.366C7.353,96.312 7.381,96.257 7.408,96.203L4.61,94.785C4.581,94.843 4.552,94.9 4.523,94.957L7.326,96.366ZM12.163,88.122C12.198,88.069 12.234,88.016 12.269,87.963L9.662,86.218C9.625,86.273 9.589,86.328 9.552,86.382L12.163,88.122ZM17.862,80.373C17.901,80.324 17.94,80.275 17.98,80.226L15.536,78.259C15.495,78.309 15.455,78.359 15.415,78.409L17.862,80.373ZM24.169,73.066C24.212,73.019 24.255,72.972 24.299,72.926L21.996,70.795C21.952,70.842 21.908,70.89 21.864,70.938L24.169,73.066ZM30.941,66.152C30.987,66.107 31.033,66.063 31.079,66.019L28.902,63.76C28.855,63.805 28.808,63.85 28.762,63.895L30.941,66.152ZM38.078,59.601C38.126,59.559 38.174,59.517 38.222,59.475L36.16,57.111C36.111,57.153 36.062,57.196 36.013,57.239L38.078,59.601ZM45.517,53.387C45.567,53.347 45.617,53.307 45.667,53.268L43.711,50.815C43.66,50.855 43.61,50.896 43.559,50.936L45.517,53.387ZM53.217,47.491C53.268,47.453 53.32,47.415 53.371,47.378L51.516,44.848C51.464,44.886 51.412,44.924 51.36,44.962L53.217,47.491ZM61.147,41.898C61.199,41.862 61.252,41.827 61.305,41.791L59.547,39.192C59.494,39.228 59.44,39.264 59.387,39.3L61.147,41.898ZM69.284,36.6C69.338,36.566 69.391,36.533 69.445,36.499L67.783,33.838C67.728,33.872 67.674,33.906 67.62,33.94L69.284,36.6ZM77.609,31.593C77.637,31.577 77.665,31.561 77.692,31.545L76.124,28.828C76.096,28.844 76.068,28.86 76.04,28.877L77.609,31.593ZM77.692,31.545C77.72,31.529 77.748,31.513 77.775,31.497L76.207,28.78C76.18,28.796 76.152,28.812 76.124,28.828L77.692,31.545ZM86.106,26.88C86.162,26.85 86.218,26.82 86.274,26.791L84.803,24.02C84.746,24.05 84.69,24.08 84.633,24.11L86.106,26.88ZM94.759,22.476C94.817,22.448 94.874,22.42 94.931,22.393L93.561,19.57C93.503,19.598 93.446,19.626 93.388,19.654L94.759,22.476ZM103.564,18.399C103.623,18.373 103.681,18.347 103.739,18.322L102.478,15.449C102.419,15.475 102.36,15.501 102.301,15.527L103.564,18.399ZM112.517,14.672C112.577,14.648 112.636,14.625 112.695,14.602L111.552,11.68C111.492,11.704 111.431,11.728 111.371,11.751L112.517,14.672ZM121.615,11.328C121.675,11.307 121.736,11.287 121.796,11.266L120.783,8.297C120.722,8.318 120.66,8.339 120.599,8.36L121.615,11.328ZM130.854,8.413C130.915,8.396 130.977,8.378 131.038,8.361L130.173,5.345C130.111,5.363 130.049,5.381 129.986,5.399L130.854,8.413ZM140.226,5.995C140.288,5.981 140.35,5.967 140.412,5.953L139.721,2.893C139.658,2.907 139.595,2.921 139.532,2.936L140.226,5.995ZM149.708,4.173C149.77,4.163 149.832,4.154 149.894,4.144L149.417,1.043C149.353,1.053 149.29,1.063 149.226,1.073L149.708,4.173ZM159.264,3.096C159.327,3.092 159.391,3.088 159.454,3.084L159.253,-0.047C159.187,-0.043 159.122,-0.039 159.056,-0.034L159.264,3.096ZM168.829,3.006C168.89,3.01 168.951,3.013 169.012,3.017L169.193,-0.115C169.129,-0.119 169.065,-0.123 169.001,-0.126L168.829,3.006ZM178.198,4.322C178.259,4.337 178.32,4.352 178.381,4.367L179.138,1.323C179.072,1.306 179.007,1.29 178.941,1.274L178.198,4.322ZM186.786,7.749C186.836,7.78 186.886,7.811 186.936,7.842L188.598,5.181C188.541,5.145 188.484,5.11 188.426,5.075L186.786,7.749ZM193.093,14.025C193.107,14.05 193.122,14.076 193.137,14.101L195.854,12.532C195.836,12.502 195.819,12.472 195.801,12.442L193.093,14.025ZM193.137,14.101C193.151,14.126 193.166,14.152 193.18,14.177L195.906,12.623C195.888,12.593 195.871,12.562 195.854,12.532L193.137,14.101ZM195.457,22.6C195.459,22.659 195.461,22.718 195.462,22.777L198.598,22.693C198.597,22.626 198.594,22.559 198.592,22.492L195.457,22.6ZM194.188,31.747C194.171,31.807 194.154,31.867 194.136,31.927L197.147,32.808C197.166,32.743 197.185,32.678 197.204,32.613L194.188,31.747ZM190.674,40.535C190.646,40.59 190.619,40.644 190.591,40.699L193.39,42.116C193.419,42.059 193.448,42.002 193.477,41.945L190.674,40.535ZM185.837,48.78C185.801,48.833 185.766,48.885 185.731,48.938L188.338,50.683C188.374,50.629 188.411,50.574 188.447,50.519L185.837,48.78ZM180.138,56.529C180.099,56.578 180.059,56.627 180.02,56.675L182.464,58.643C182.504,58.593 182.545,58.542 182.585,58.492L180.138,56.529ZM173.83,63.836C173.787,63.883 173.744,63.929 173.701,63.976L176.004,66.107C176.048,66.059 176.091,66.012 176.135,65.964L173.83,63.836ZM167.059,70.75C167.013,70.794 166.967,70.839 166.921,70.883L169.098,73.142C169.145,73.097 169.191,73.052 169.238,73.007L167.059,70.75ZM159.922,77.301C159.874,77.343 159.826,77.385 159.777,77.427L161.84,79.791C161.889,79.748 161.938,79.706 161.986,79.663L159.922,77.301ZM152.482,83.515C152.432,83.554 152.383,83.594 152.333,83.634L154.289,86.087C154.339,86.046 154.39,86.006 154.44,85.966L152.482,83.515ZM144.782,89.411C144.731,89.449 144.68,89.486 144.629,89.524L146.484,92.054C146.536,92.016 146.588,91.978 146.64,91.94L144.782,89.411ZM136.853,95.004C136.8,95.039 136.748,95.075 136.695,95.111L138.453,97.709C138.506,97.673 138.559,97.637 138.612,97.601L136.853,95.004ZM128.716,100.302C128.662,100.336 128.608,100.369 128.555,100.403L130.217,103.063C130.271,103.029 130.325,102.995 130.38,102.961L128.716,100.302ZM120.39,105.309C120.363,105.325 120.335,105.341 120.307,105.357L121.876,108.074C121.904,108.057 121.932,108.041 121.96,108.025L120.39,105.309Z" transform="rotate(-240 99 68.451)" fill="#647EA0"/>
</svg>
