<svg width="796" height="1010" viewBox="0 0 796 1010" fill="none" xmlns="http://www.w3.org/2000/svg" xmlns:xlink="http://www.w3.org/1999/xlink">
<path d="M579.648,0.45L579.648,494.554L583.262,494.554L583.262,0.45L579.648,0.45Z" transform="rotate(240 581.455 247.502)" fill="#0E1947"/>
<path d="M570.033,17.103L570.033,511.207L573.648,511.207L573.648,17.103L570.033,17.103Z" transform="rotate(240 571.84 264.155)" fill="#0E1947"/>
<path d="M560.419,33.756L560.419,527.86L564.033,527.86L564.033,33.756L560.419,33.756Z" transform="rotate(240 562.226 280.808)" fill="#0E1947"/>
<path d="M550.804,50.409L550.804,544.513L554.419,544.513L554.419,50.409L550.804,50.409Z" transform="rotate(240 552.612 297.46)" fill="#0E1947"/>
<path d="M541.19,67.061L541.19,561.165L544.804,561.165L544.804,67.061L541.19,67.061Z" transform="rotate(240 542.997 314.113)" fill="#0E1947"/>
<path d="M531.575,83.714L531.575,577.818L535.19,577.818L535.19,83.714L531.575,83.714Z" transform="rotate(240 533.383 330.766)" fill="#0E1947"/>
<path d="M521.961,100.367L521.961,594.471L525.575,594.471L525.575,100.367L521.961,100.367Z" transform="rotate(240 523.768 347.418)" fill="#0E1947"/>
<path d="M512.346,117.019L512.346,611.123L515.961,611.123L515.961,117.019L512.346,117.019Z" transform="rotate(240 514.154 364.071)" fill="#0E1947"/>
<path d="M502.732,133.672L502.732,627.776L506.346,627.776L506.346,133.672L502.732,133.672Z" transform="rotate(240 504.539 380.724)" fill="#0E1947"/>
<path d="M493.118,150.325L493.118,644.429L496.732,644.429L496.732,150.325L493.118,150.325Z" transform="rotate(240 494.925 397.377)" fill="#0E1947"/>
<path d="M483.503,166.977L483.503,661.081L487.118,661.081L487.118,166.977L483.503,166.977Z" transform="rotate(240 485.31 414.029)" fill="#0E1947"/>
<path d="M473.889,183.631L473.889,677.735L477.503,677.735L477.503,183.631L473.889,183.631Z" transform="rotate(240 475.696 430.683)" fill="#0E1947"/>
<path d="M464.274,200.283L464.274,694.387L467.889,694.387L467.889,200.283L464.274,200.283Z" transform="rotate(240 466.081 447.335)" fill="#0E1947"/>
<path d="M454.66,216.936L454.66,711.04L458.274,711.04L458.274,216.936L454.66,216.936Z" transform="rotate(240 456.467 463.988)" fill="#0E1947"/>
<path d="M445.045,233.588L445.045,727.692L448.66,727.692L448.66,233.588L445.045,233.588Z" transform="rotate(240 446.852 480.64)" fill="#0E1947"/>
<path d="M435.431,250.241L435.431,744.345L439.045,744.345L439.045,250.241L435.431,250.241Z" transform="rotate(240 437.238 497.293)" fill="#0E1947"/>
<path d="M425.816,266.894L425.816,760.998L429.431,760.998L429.431,266.894L425.816,266.894Z" transform="rotate(240 427.624 513.945)" fill="#0E1947"/>
<path d="M416.202,283.546L416.202,777.65L419.816,777.65L419.816,283.546L416.202,283.546Z" transform="rotate(240 418.009 530.598)" fill="#0E1947"/>
<path d="M406.587,300.2L406.587,794.304L410.202,794.304L410.202,300.2L406.587,300.2Z" transform="rotate(240 408.395 547.252)" fill="#0E1947"/>
<path d="M396.973,316.852L396.973,810.956L400.587,810.956L400.587,316.852L396.973,316.852Z" transform="rotate(240 398.78 563.904)" fill="#0E1947"/>
</svg>
