<svg width="196" height="182" viewBox="0 0 196 182" fill="none" xmlns="http://www.w3.org/2000/svg" xmlns:xlink="http://www.w3.org/1999/xlink">
<path d="M125.47,72.329C131.508,68.363 138.414,65.912 145.602,65.186C152.79,64.46 160.046,65.48 166.756,68.158C173.465,70.837 179.429,75.095 184.141,80.572C188.852,86.048 192.172,92.581 193.819,99.615C195.465,106.65 195.389,113.977 193.598,120.976C191.807,127.975 188.352,134.438 183.529,139.816C178.705,145.194 172.655,149.328 165.892,151.868C159.128,154.407 151.852,155.277 144.681,154.402L145.257,149.673C151.667,150.455 158.171,149.678 164.217,147.408C170.262,145.138 175.671,141.442 179.982,136.635C184.294,131.828 187.382,126.051 188.983,119.795C190.584,113.539 190.652,106.989 189.18,100.701C187.708,94.414 184.741,88.574 180.529,83.679C176.318,78.784 170.987,74.977 164.99,72.583C158.992,70.188 152.506,69.277 146.081,69.926C139.656,70.575 133.483,72.765 128.085,76.311L125.47,72.329Z" fill="#0E1947"/>
<path d="M176.712,43.128C176.712,56.958 165.5,68.17 151.67,68.17C137.84,68.17 126.628,56.958 126.628,43.128C126.628,29.298 137.84,18.086 151.67,18.086C165.5,18.086 176.712,29.298 176.712,43.128ZM131.019,43.128C131.019,54.533 140.265,63.779 151.67,63.779C163.075,63.779 172.321,54.533 172.321,43.128C172.321,31.723 163.075,22.477 151.67,22.477C140.265,22.477 131.019,31.723 131.019,43.128Z" fill="#0E1947"/>
<path d="M20.273,72.329C26.311,68.363 33.218,65.912 40.405,65.186C47.593,64.46 54.85,65.48 61.559,68.158C68.269,70.837 74.232,75.095 78.944,80.572C83.655,86.048 86.975,92.581 88.622,99.615C90.268,106.65 90.193,113.977 88.401,120.976C86.61,127.975 83.156,134.438 78.332,139.816C73.509,145.194 67.458,149.328 60.695,151.868C53.932,154.407 46.655,155.277 39.484,154.402L40.061,149.673C46.471,150.455 52.975,149.678 59.02,147.408C65.066,145.138 70.474,141.442 74.786,136.635C79.097,131.828 82.185,126.051 83.786,119.795C85.387,113.539 85.455,106.989 83.983,100.701C82.512,94.414 79.544,88.574 75.333,83.679C71.121,78.784 65.79,74.977 59.793,72.583C53.796,70.188 47.309,69.277 40.884,69.926C34.459,70.575 28.286,72.765 22.889,76.311L20.273,72.329Z" transform="rotate(360 44.917 109.846)" fill="#0E1947"/>
<path d="M71,43.042C71,56.872 59.789,68.084 45.958,68.084C32.128,68.084 20.916,56.872 20.916,43.042C20.916,29.212 32.128,18 45.958,18C59.789,18 71,29.212 71,43.042ZM25.307,43.042C25.307,54.447 34.553,63.693 45.958,63.693C57.364,63.693 66.609,54.447 66.609,43.042C66.609,31.637 57.364,22.391 45.958,22.391C34.553,22.391 25.307,31.637 25.307,43.042Z" transform="rotate(360 45.958 43.042)" fill="#0E1947"/>
<circle cx="70.236" cy="94.321" r="1.884" fill="#647EA0"/>
<circle cx="81.392" cy="94.321" r="1.884" fill="#647EA0"/>
<circle cx="92.548" cy="94.321" r="1.884" fill="#647EA0"/>
<circle cx="103.703" cy="94.321" r="1.884" fill="#647EA0"/>
<circle cx="114.858" cy="94.321" r="1.884" fill="#647EA0"/>
<circle cx="126.015" cy="94.321" r="1.884" fill="#647EA0"/>
<circle cx="70.236" cy="105.477" r="1.884" fill="#647EA0"/>
<circle cx="81.392" cy="105.477" r="1.884" fill="#647EA0"/>
<circle cx="92.547" cy="105.477" r="1.884" fill="#647EA0"/>
<circle cx="103.703" cy="105.477" r="1.884" fill="#647EA0"/>
<circle cx="114.859" cy="105.477" r="1.884" fill="#647EA0"/>
<circle cx="126.014" cy="105.477" r="1.884" fill="#647EA0"/>
<circle cx="70.236" cy="116.633" r="1.884" fill="#647EA0"/>
<circle cx="81.392" cy="116.633" r="1.884" fill="#647EA0"/>
<circle cx="92.548" cy="116.633" r="1.884" fill="#647EA0"/>
<circle cx="103.703" cy="116.633" r="1.884" fill="#647EA0"/>
<circle cx="114.858" cy="116.633" r="1.884" fill="#647EA0"/>
<circle cx="126.014" cy="116.633" r="1.884" fill="#647EA0"/>
<circle cx="70.236" cy="127.788" r="1.884" fill="#647EA0"/>
<circle cx="81.392" cy="127.788" r="1.884" fill="#647EA0"/>
<circle cx="92.548" cy="127.788" r="1.884" fill="#647EA0"/>
<circle cx="103.703" cy="127.788" r="1.884" fill="#647EA0"/>
<circle cx="114.858" cy="127.788" r="1.884" fill="#647EA0"/>
<circle cx="126.014" cy="127.788" r="1.884" fill="#647EA0"/>
<circle cx="70.236" cy="138.943" r="1.884" fill="#647EA0"/>
<circle cx="81.392" cy="138.943" r="1.884" fill="#647EA0"/>
<circle cx="92.547" cy="138.943" r="1.884" fill="#647EA0"/>
<circle cx="103.703" cy="138.943" r="1.884" fill="#647EA0"/>
<circle cx="114.859" cy="138.943" r="1.884" fill="#647EA0"/>
<circle cx="126.014" cy="138.943" r="1.884" fill="#647EA0"/>
<circle cx="70.236" cy="150.1" r="1.884" fill="#647EA0"/>
<circle cx="81.392" cy="150.1" r="1.884" fill="#647EA0"/>
<circle cx="92.547" cy="150.1" r="1.884" fill="#647EA0"/>
<circle cx="103.703" cy="150.1" r="1.884" fill="#647EA0"/>
<circle cx="114.859" cy="150.1" r="1.884" fill="#647EA0"/>
<circle cx="126.014" cy="150.1" r="1.884" fill="#647EA0"/>
<path d="M157.523,121.952C157.523,154.9 130.814,181.609 97.867,181.609C64.919,181.609 38.21,154.9 38.21,121.952C38.21,89.005 64.919,62.296 97.867,62.296C130.814,62.296 157.523,89.005 157.523,121.952ZM44.542,121.952C44.542,151.403 68.416,175.277 97.867,175.277C127.317,175.277 151.192,151.403 151.192,121.952C151.192,92.502 127.317,68.627 97.867,68.627C68.416,68.627 44.542,92.502 44.542,121.952Z" fill="#647EA0"/>
<path d="M131.4,33.283C131.4,51.664 116.499,66.565 98.118,66.565C79.737,66.565 64.836,51.664 64.836,33.283C64.836,14.902 79.737,0.001 98.118,0.001C116.499,0.001 131.4,14.902 131.4,33.283ZM70.671,33.283C70.671,48.441 82.96,60.729 98.118,60.729C113.276,60.729 125.564,48.441 125.564,33.283C125.564,18.125 113.276,5.837 98.118,5.837C82.96,5.837 70.671,18.125 70.671,33.283Z" fill="#647EA0"/>
</svg>
