<svg width="2640" height="2476" viewBox="0 0 2640 2476" fill="none" xmlns="http://www.w3.org/2000/svg" xmlns:xlink="http://www.w3.org/1999/xlink">
<path d="M366.377,0.571L366.377,1475.365L371.377,1475.365L371.377,0.571L366.377,0.571Z" transform="rotate(60 368.877 737.969)" fill="#647EA0"/>
<path d="M398.992,19.402L398.992,1494.196L403.992,1494.196L403.992,19.402L398.992,19.402Z" transform="rotate(60 401.492 756.799)" fill="#647EA0"/>
<path d="M431.606,38.232L431.606,1513.026L436.606,1513.026L436.606,38.232L431.606,38.232Z" transform="rotate(60 434.106 775.629)" fill="#647EA0"/>
<path d="M464.221,57.062L464.221,1531.856L469.221,1531.856L469.221,57.062L464.221,57.062Z" transform="rotate(60 466.721 794.459)" fill="#647EA0"/>
<path d="M496.835,75.892L496.835,1550.686L501.835,1550.686L501.835,75.892L496.835,75.892Z" transform="rotate(60 499.335 813.289)" fill="#647EA0"/>
<path d="M529.45,94.722L529.45,1569.516L534.45,1569.516L534.45,94.722L529.45,94.722Z" transform="rotate(60 531.95 832.119)" fill="#647EA0"/>
<path d="M562.064,113.552L562.064,1588.346L567.064,1588.346L567.064,113.552L562.064,113.552Z" transform="rotate(60 564.564 850.949)" fill="#647EA0"/>
<path d="M594.679,132.381L594.679,1607.175L599.679,1607.175L599.679,132.381L594.679,132.381Z" transform="rotate(60 597.179 869.778)" fill="#647EA0"/>
<path d="M627.293,151.211L627.293,1626.005L632.293,1626.005L632.293,151.211L627.293,151.211Z" transform="rotate(60 629.793 888.608)" fill="#647EA0"/>
<path d="M659.908,170.041L659.908,1644.835L664.908,1644.835L664.908,170.041L659.908,170.041Z" transform="rotate(60 662.408 907.438)" fill="#647EA0"/>
<path d="M692.523,188.871L692.523,1663.665L697.523,1663.665L697.523,188.871L692.523,188.871Z" transform="rotate(60 695.023 926.268)" fill="#647EA0"/>
<path d="M725.137,207.701L725.137,1682.495L730.137,1682.495L730.137,207.701L725.137,207.701Z" transform="rotate(60 727.637 945.098)" fill="#647EA0"/>
<path d="M757.752,226.531L757.752,1701.325L762.752,1701.325L762.752,226.531L757.752,226.531Z" transform="rotate(60 760.252 963.929)" fill="#647EA0"/>
<path d="M790.366,245.361L790.366,1720.155L795.366,1720.155L795.366,245.361L790.366,245.361Z" transform="rotate(60 792.866 982.759)" fill="#647EA0"/>
<path d="M822.981,264.192L822.981,1738.986L827.981,1738.986L827.981,264.192L822.981,264.192Z" transform="rotate(60 825.481 1001.589)" fill="#647EA0"/>
<path d="M855.595,283.022L855.595,1757.816L860.595,1757.816L860.595,283.022L855.595,283.022Z" transform="rotate(60 858.095 1020.419)" fill="#647EA0"/>
<path d="M888.21,301.852L888.21,1776.646L893.21,1776.646L893.21,301.852L888.21,301.852Z" transform="rotate(60 890.71 1039.249)" fill="#647EA0"/>
<path d="M920.824,320.682L920.824,1795.476L925.824,1795.476L925.824,320.682L920.824,320.682Z" transform="rotate(60 923.324 1058.079)" fill="#647EA0"/>
<path d="M953.439,339.512L953.439,1814.306L958.439,1814.306L958.439,339.512L953.439,339.512Z" transform="rotate(60 955.939 1076.909)" fill="#647EA0"/>
<path d="M986.053,358.341L986.053,1833.135L991.053,1833.135L991.053,358.341L986.053,358.341Z" transform="rotate(60 988.553 1095.738)" fill="#647EA0"/>
<path d="M1018.668,377.171L1018.668,1851.965L1023.668,1851.965L1023.668,377.171L1018.668,377.171Z" transform="rotate(60 1021.168 1114.568)" fill="#647EA0"/>
<path d="M1051.282,396.001L1051.282,1870.795L1056.282,1870.795L1056.282,396.001L1051.282,396.001Z" transform="rotate(60 1053.782 1133.398)" fill="#647EA0"/>
<path d="M1083.896,414.831L1083.896,1889.625L1088.896,1889.625L1088.896,414.831L1083.896,414.831Z" transform="rotate(60 1086.396 1152.228)" fill="#647EA0"/>
<path d="M1116.511,433.661L1116.511,1908.455L1121.511,1908.455L1121.511,433.661L1116.511,433.661Z" transform="rotate(60 1119.011 1171.058)" fill="#647EA0"/>
<path d="M1149.125,452.491L1149.125,1927.285L1154.125,1927.285L1154.125,452.491L1149.125,452.491Z" transform="rotate(60 1151.625 1189.889)" fill="#647EA0"/>
<path d="M1181.74,471.321L1181.74,1946.115L1186.74,1946.115L1186.74,471.321L1181.74,471.321Z" transform="rotate(60 1184.24 1208.719)" fill="#647EA0"/>
<path d="M1214.354,490.152L1214.354,1964.946L1219.354,1964.946L1219.354,490.152L1214.354,490.152Z" transform="rotate(60 1216.854 1227.549)" fill="#647EA0"/>
<path d="M1246.969,508.982L1246.969,1983.776L1251.969,1983.776L1251.969,508.982L1246.969,508.982Z" transform="rotate(60 1249.469 1246.379)" fill="#647EA0"/>
<path d="M1279.583,527.812L1279.583,2002.606L1284.583,2002.606L1284.583,527.812L1279.583,527.812Z" transform="rotate(60 1282.083 1265.209)" fill="#647EA0"/>
<path d="M1312.198,546.641L1312.198,2021.435L1317.198,2021.435L1317.198,546.641L1312.198,546.641Z" transform="rotate(60 1314.698 1284.038)" fill="#647EA0"/>
<path d="M1344.813,565.471L1344.813,2040.265L1349.813,2040.265L1349.813,565.471L1344.813,565.471Z" transform="rotate(60 1347.313 1302.868)" fill="#647EA0"/>
<path d="M1377.427,584.301L1377.427,2059.095L1382.427,2059.095L1382.427,584.301L1377.427,584.301Z" transform="rotate(60 1379.927 1321.698)" fill="#647EA0"/>
<path d="M1410.042,603.131L1410.042,2077.925L1415.042,2077.925L1415.042,603.131L1410.042,603.131Z" transform="rotate(60 1412.542 1340.528)" fill="#647EA0"/>
<path d="M1442.656,621.961L1442.656,2096.755L1447.656,2096.755L1447.656,621.961L1442.656,621.961Z" transform="rotate(60 1445.156 1359.358)" fill="#647EA0"/>
<path d="M1475.271,640.791L1475.271,2115.585L1480.271,2115.585L1480.271,640.791L1475.271,640.791Z" transform="rotate(60 1477.771 1378.188)" fill="#647EA0"/>
<path d="M1507.885,659.621L1507.885,2134.415L1512.885,2134.415L1512.885,659.621L1507.885,659.621Z" transform="rotate(60 1510.385 1397.018)" fill="#647EA0"/>
<path d="M1540.5,678.451L1540.5,2153.245L1545.5,2153.245L1545.5,678.451L1540.5,678.451Z" transform="rotate(60 1543 1415.848)" fill="#647EA0"/>
<path d="M1573.114,697.281L1573.114,2172.075L1578.114,2172.075L1578.114,697.281L1573.114,697.281Z" transform="rotate(60 1575.614 1434.679)" fill="#647EA0"/>
<path d="M1605.729,716.111L1605.729,2190.905L1610.729,2190.905L1610.729,716.111L1605.729,716.111Z" transform="rotate(60 1608.229 1453.509)" fill="#647EA0"/>
<path d="M1638.343,734.942L1638.343,2209.736L1643.343,2209.736L1643.343,734.942L1638.343,734.942Z" transform="rotate(60 1640.843 1472.339)" fill="#647EA0"/>
<path d="M1670.958,753.772L1670.958,2228.566L1675.958,2228.566L1675.958,753.772L1670.958,753.772Z" transform="rotate(60 1673.458 1491.169)" fill="#647EA0"/>
<path d="M1703.573,772.602L1703.573,2247.396L1708.573,2247.396L1708.573,772.602L1703.573,772.602Z" transform="rotate(60 1706.073 1509.999)" fill="#647EA0"/>
<path d="M1736.187,791.432L1736.187,2266.226L1741.187,2266.226L1741.187,791.432L1736.187,791.432Z" transform="rotate(60 1738.687 1528.829)" fill="#647EA0"/>
<path d="M1768.802,810.262L1768.802,2285.056L1773.802,2285.056L1773.802,810.262L1768.802,810.262Z" transform="rotate(60 1771.302 1547.659)" fill="#647EA0"/>
<path d="M1801.416,829.092L1801.416,2303.886L1806.416,2303.886L1806.416,829.092L1801.416,829.092Z" transform="rotate(60 1803.916 1566.489)" fill="#647EA0"/>
<path d="M1834.031,847.922L1834.031,2322.716L1839.031,2322.716L1839.031,847.922L1834.031,847.922Z" transform="rotate(60 1836.531 1585.319)" fill="#647EA0"/>
</svg>
