<svg width="1224" height="1148" viewBox="0 0 1224 1148" fill="none" xmlns="http://www.w3.org/2000/svg" xmlns:xlink="http://www.w3.org/1999/xlink">
<path d="M168.878,0.11L168.878,683.62L170.878,683.62L170.878,0.11L168.878,0.11Z" transform="rotate(60 169.878 341.865)" fill="#647EA0"/>
<path d="M177.538,5.11L177.538,688.62L179.538,688.62L179.538,5.11L177.538,5.11Z" transform="rotate(60 178.538 346.865)" fill="#647EA0"/>
<path d="M186.198,10.11L186.198,693.62L188.198,693.62L188.198,10.11L186.198,10.11Z" transform="rotate(60 187.198 351.865)" fill="#647EA0"/>
<path d="M194.858,15.11L194.858,698.62L196.858,698.62L196.858,15.11L194.858,15.11Z" transform="rotate(60 195.858 356.865)" fill="#647EA0"/>
<path d="M203.519,20.11L203.519,703.62L205.519,703.62L205.519,20.11L203.519,20.11Z" transform="rotate(60 204.519 361.865)" fill="#647EA0"/>
<path d="M212.179,25.11L212.179,708.62L214.179,708.62L214.179,25.11L212.179,25.11Z" transform="rotate(60 213.179 366.865)" fill="#647EA0"/>
<path d="M220.839,30.11L220.839,713.62L222.839,713.62L222.839,30.11L220.839,30.11Z" transform="rotate(60 221.839 371.865)" fill="#647EA0"/>
<path d="M229.499,35.11L229.499,718.62L231.499,718.62L231.499,35.11L229.499,35.11Z" transform="rotate(60 230.499 376.865)" fill="#647EA0"/>
<path d="M238.16,40.11L238.16,723.62L240.16,723.62L240.16,40.11L238.16,40.11Z" transform="rotate(60 239.16 381.865)" fill="#647EA0"/>
<path d="M246.82,45.11L246.82,728.62L248.82,728.62L248.82,45.11L246.82,45.11Z" transform="rotate(60 247.82 386.865)" fill="#647EA0"/>
<path d="M255.48,50.11L255.48,733.62L257.48,733.62L257.48,50.11L255.48,50.11Z" transform="rotate(60 256.48 391.865)" fill="#647EA0"/>
<path d="M264.14,55.11L264.14,738.62L266.14,738.62L266.14,55.11L264.14,55.11Z" transform="rotate(60 265.14 396.865)" fill="#647EA0"/>
<path d="M272.801,60.11L272.801,743.62L274.801,743.62L274.801,60.11L272.801,60.11Z" transform="rotate(60 273.801 401.865)" fill="#647EA0"/>
<path d="M281.461,65.11L281.461,748.62L283.461,748.62L283.461,65.11L281.461,65.11Z" transform="rotate(60 282.461 406.865)" fill="#647EA0"/>
<path d="M290.121,70.11L290.121,753.62L292.121,753.62L292.121,70.11L290.121,70.11Z" transform="rotate(60 291.121 411.865)" fill="#647EA0"/>
<path d="M298.781,75.11L298.781,758.62L300.781,758.62L300.781,75.11L298.781,75.11Z" transform="rotate(60 299.781 416.865)" fill="#647EA0"/>
<path d="M307.442,80.11L307.442,763.62L309.442,763.62L309.442,80.11L307.442,80.11Z" transform="rotate(60 308.442 421.865)" fill="#647EA0"/>
<path d="M316.102,85.11L316.102,768.62L318.102,768.62L318.102,85.11L316.102,85.11Z" transform="rotate(60 317.102 426.865)" fill="#647EA0"/>
<path d="M324.762,90.11L324.762,773.62L326.762,773.62L326.762,90.11L324.762,90.11Z" transform="rotate(60 325.762 431.865)" fill="#647EA0"/>
<path d="M333.422,95.11L333.422,778.62L335.422,778.62L335.422,95.11L333.422,95.11Z" transform="rotate(60 334.422 436.865)" fill="#647EA0"/>
<path d="M342.083,100.11L342.083,783.62L344.083,783.62L344.083,100.11L342.083,100.11Z" transform="rotate(60 343.083 441.865)" fill="#647EA0"/>
<path d="M350.743,105.11L350.743,788.62L352.743,788.62L352.743,105.11L350.743,105.11Z" transform="rotate(60 351.743 446.865)" fill="#647EA0"/>
<path d="M359.403,110.11L359.403,793.62L361.403,793.62L361.403,110.11L359.403,110.11Z" transform="rotate(60 360.403 451.865)" fill="#647EA0"/>
<rect  x="233.215" y="485.56" width="95.858" height="6" transform="rotate(90 233.215 485.56)" fill="#0E1947"/>
<path d="M258.207,436.604C258.207,480.016 223.015,515.208 179.604,515.208C136.192,515.208 101,480.016 101,436.604C101,393.192 136.192,358 179.604,358C223.015,358 258.207,393.192 258.207,436.604ZM107.026,436.604C107.026,476.687 139.52,509.182 179.604,509.182C219.687,509.182 252.181,476.687 252.181,436.604C252.181,396.52 219.687,364.026 179.604,364.026C139.52,364.026 107.026,396.52 107.026,436.604Z" fill="#0E1947"/>
<circle cx="102.974" cy="532.286" r="1.974" fill="#647EA0"/>
<circle cx="114.661" cy="532.286" r="1.974" fill="#647EA0"/>
<circle cx="126.348" cy="532.286" r="1.974" fill="#647EA0"/>
<circle cx="138.036" cy="532.286" r="1.974" fill="#647EA0"/>
<circle cx="149.723" cy="532.286" r="1.974" fill="#647EA0"/>
<circle cx="161.41" cy="532.286" r="1.974" fill="#647EA0"/>
<circle cx="173.097" cy="532.286" r="1.974" fill="#647EA0"/>
<circle cx="184.785" cy="532.286" r="1.974" fill="#647EA0"/>
<circle cx="196.472" cy="532.286" r="1.974" fill="#647EA0"/>
<circle cx="208.159" cy="532.286" r="1.974" fill="#647EA0"/>
<circle cx="219.847" cy="532.286" r="1.974" fill="#647EA0"/>
<circle cx="231.534" cy="532.286" r="1.974" fill="#647EA0"/>
<circle cx="243.221" cy="532.286" r="1.974" fill="#647EA0"/>
<circle cx="254.909" cy="532.286" r="1.974" fill="#647EA0"/>
<circle cx="102.974" cy="543.974" r="1.974" fill="#647EA0"/>
<circle cx="114.661" cy="543.974" r="1.974" fill="#647EA0"/>
<circle cx="126.348" cy="543.974" r="1.974" fill="#647EA0"/>
<circle cx="138.036" cy="543.974" r="1.974" fill="#647EA0"/>
<circle cx="149.723" cy="543.974" r="1.974" fill="#647EA0"/>
<circle cx="161.41" cy="543.974" r="1.974" fill="#647EA0"/>
<circle cx="173.097" cy="543.974" r="1.974" fill="#647EA0"/>
<circle cx="184.785" cy="543.974" r="1.974" fill="#647EA0"/>
<circle cx="196.472" cy="543.974" r="1.974" fill="#647EA0"/>
<circle cx="208.159" cy="543.974" r="1.974" fill="#647EA0"/>
<circle cx="219.847" cy="543.974" r="1.974" fill="#647EA0"/>
<circle cx="231.534" cy="543.974" r="1.974" fill="#647EA0"/>
<circle cx="243.221" cy="543.974" r="1.974" fill="#647EA0"/>
<circle cx="254.909" cy="543.974" r="1.974" fill="#647EA0"/>
<circle cx="266.596" cy="543.974" r="1.974" fill="#647EA0"/>
<circle cx="102.974" cy="555.661" r="1.974" fill="#647EA0"/>
<circle cx="114.661" cy="555.661" r="1.974" fill="#647EA0"/>
<circle cx="126.348" cy="555.661" r="1.974" fill="#647EA0"/>
<circle cx="138.036" cy="555.661" r="1.974" fill="#647EA0"/>
<circle cx="149.723" cy="555.661" r="1.974" fill="#647EA0"/>
<circle cx="161.41" cy="555.661" r="1.974" fill="#647EA0"/>
<circle cx="173.097" cy="555.661" r="1.974" fill="#647EA0"/>
<circle cx="184.785" cy="555.661" r="1.974" fill="#647EA0"/>
<circle cx="196.472" cy="555.661" r="1.974" fill="#647EA0"/>
<circle cx="208.159" cy="555.661" r="1.974" fill="#647EA0"/>
<circle cx="219.847" cy="555.661" r="1.974" fill="#647EA0"/>
<circle cx="231.534" cy="555.661" r="1.974" fill="#647EA0"/>
<circle cx="243.221" cy="555.661" r="1.974" fill="#647EA0"/>
<circle cx="254.909" cy="555.661" r="1.974" fill="#647EA0"/>
<circle cx="266.596" cy="555.661" r="1.974" fill="#647EA0"/>
<circle cx="278.283" cy="555.661" r="1.974" fill="#647EA0"/>
</svg>
