<svg width="1102" height="1394" viewBox="0 0 1102 1394" fill="none" xmlns="http://www.w3.org/2000/svg" xmlns:xlink="http://www.w3.org/1999/xlink">
<path d="M801.135,-0.059L801.135,683.451L807.135,683.451L807.135,-0.059L801.135,-0.059Z" transform="rotate(240 804.135 341.696)" fill="#647EA0"/>
<path d="M782.135,32.85L782.135,716.36L788.135,716.36L788.135,32.85L782.135,32.85Z" transform="rotate(240 785.135 374.606)" fill="#647EA0"/>
<path d="M763.135,65.759L763.135,749.269L769.135,749.269L769.135,65.759L763.135,65.759Z" transform="rotate(240 766.135 407.514)" fill="#647EA0"/>
<path d="M744.135,98.668L744.135,782.178L750.135,782.178L750.135,98.668L744.135,98.668Z" transform="rotate(240 747.135 440.423)" fill="#647EA0"/>
<path d="M725.135,131.577L725.135,815.087L731.135,815.087L731.135,131.577L725.135,131.577Z" transform="rotate(240 728.135 473.332)" fill="#647EA0"/>
<path d="M706.135,164.486L706.135,847.996L712.135,847.996L712.135,164.486L706.135,164.486Z" transform="rotate(240 709.135 506.241)" fill="#647EA0"/>
<path d="M687.135,197.395L687.135,880.905L693.135,880.905L693.135,197.395L687.135,197.395Z" transform="rotate(240 690.135 539.15)" fill="#647EA0"/>
<path d="M668.135,230.304L668.135,913.814L674.135,913.814L674.135,230.304L668.135,230.304Z" transform="rotate(240 671.135 572.059)" fill="#647EA0"/>
<path d="M649.135,263.213L649.135,946.723L655.135,946.723L655.135,263.213L649.135,263.213Z" transform="rotate(240 652.135 604.968)" fill="#647EA0"/>
<path d="M630.135,296.122L630.135,979.632L636.135,979.632L636.135,296.122L630.135,296.122Z" transform="rotate(240 633.135 637.877)" fill="#647EA0"/>
<path d="M611.135,329.031L611.135,1012.541L617.135,1012.541L617.135,329.031L611.135,329.031Z" transform="rotate(240 614.135 670.786)" fill="#647EA0"/>
<path d="M592.135,361.94L592.135,1045.45L598.135,1045.45L598.135,361.94L592.135,361.94Z" transform="rotate(240 595.135 703.695)" fill="#647EA0"/>
<path d="M573.135,394.849L573.135,1078.359L579.135,1078.359L579.135,394.849L573.135,394.849Z" transform="rotate(240 576.135 736.604)" fill="#647EA0"/>
<path d="M554.135,427.758L554.135,1111.268L560.135,1111.268L560.135,427.758L554.135,427.758Z" transform="rotate(240 557.135 769.513)" fill="#647EA0"/>
<path d="M535.135,460.667L535.135,1144.177L541.135,1144.177L541.135,460.667L535.135,460.667Z" transform="rotate(240 538.135 802.422)" fill="#647EA0"/>
<path d="M516.135,493.576L516.135,1177.086L522.135,1177.086L522.135,493.576L516.135,493.576Z" transform="rotate(240 519.135 835.331)" fill="#647EA0"/>
<path d="M497.135,526.485L497.135,1209.995L503.135,1209.995L503.135,526.485L497.135,526.485Z" transform="rotate(240 500.135 868.24)" fill="#647EA0"/>
<path d="M478.135,559.394L478.135,1242.904L484.135,1242.904L484.135,559.394L478.135,559.394Z" transform="rotate(240 481.135 901.149)" fill="#647EA0"/>
<path d="M459.135,592.303L459.135,1275.813L465.135,1275.813L465.135,592.303L459.135,592.303Z" transform="rotate(240 462.135 934.058)" fill="#647EA0"/>
<path d="M440.135,625.212L440.135,1308.722L446.135,1308.722L446.135,625.212L440.135,625.212Z" transform="rotate(240 443.135 966.967)" fill="#647EA0"/>
</svg>
