<svg width="916" height="858" viewBox="0 0 916 858" fill="none" xmlns="http://www.w3.org/2000/svg" xmlns:xlink="http://www.w3.org/1999/xlink">
<path d="M127.205,0.405L127.205,510.963L129.166,510.963L129.166,0.405L127.205,0.405Z" transform="rotate(60 128.186 255.684)" fill="#647EA0"/>
<path d="M133.674,4.14L133.674,514.698L135.635,514.698L135.635,4.14L133.674,4.14Z" transform="rotate(60 134.655 259.419)" fill="#647EA0"/>
<path d="M140.143,7.875L140.143,518.433L142.104,518.433L142.104,7.875L140.143,7.875Z" transform="rotate(60 141.124 263.154)" fill="#647EA0"/>
<path d="M146.612,11.609L146.612,522.167L148.573,522.167L148.573,11.609L146.612,11.609Z" transform="rotate(60 147.592 266.888)" fill="#647EA0"/>
<path d="M153.081,15.345L153.081,525.903L155.042,525.903L155.042,15.345L153.081,15.345Z" transform="rotate(60 154.061 270.624)" fill="#647EA0"/>
<path d="M159.55,19.079L159.55,529.637L161.511,529.637L161.511,19.079L159.55,19.079Z" transform="rotate(60 160.53 274.358)" fill="#647EA0"/>
<path d="M166.019,22.814L166.019,533.372L167.98,533.372L167.98,22.814L166.019,22.814Z" transform="rotate(60 166.999 278.094)" fill="#647EA0"/>
<path d="M172.488,26.549L172.488,537.107L174.449,537.107L174.449,26.549L172.488,26.549Z" transform="rotate(60 173.468 281.828)" fill="#647EA0"/>
<path d="M178.957,30.284L178.957,540.842L180.917,540.842L180.917,30.284L178.957,30.284Z" transform="rotate(60 179.937 285.563)" fill="#647EA0"/>
<path d="M185.426,34.018L185.426,544.576L187.386,544.576L187.386,34.018L185.426,34.018Z" transform="rotate(60 186.406 289.298)" fill="#647EA0"/>
<path d="M191.895,37.754L191.895,548.312L193.855,548.312L193.855,37.754L191.895,37.754Z" transform="rotate(60 192.875 293.033)" fill="#647EA0"/>
<path d="M198.363,41.488L198.363,552.046L200.324,552.046L200.324,41.488L198.363,41.488Z" transform="rotate(60 199.344 296.767)" fill="#647EA0"/>
<path d="M204.832,45.224L204.832,555.782L206.793,555.782L206.793,45.224L204.832,45.224Z" transform="rotate(60 205.813 300.503)" fill="#647EA0"/>
<path d="M211.301,48.958L211.301,559.516L213.262,559.516L213.262,48.958L211.301,48.958Z" transform="rotate(60 212.281 304.237)" fill="#647EA0"/>
<path d="M217.77,52.692L217.77,563.25L219.731,563.25L219.731,52.692L217.77,52.692Z" transform="rotate(60 218.75 307.972)" fill="#647EA0"/>
<path d="M224.239,56.428L224.239,566.986L226.2,566.986L226.2,56.428L224.239,56.428Z" transform="rotate(60 225.219 311.707)" fill="#647EA0"/>
<path d="M230.708,60.162L230.708,570.72L232.669,570.72L232.669,60.162L230.708,60.162Z" transform="rotate(60 231.688 315.441)" fill="#647EA0"/>
<path d="M237.177,63.897L237.177,574.455L239.138,574.455L239.138,63.897L237.177,63.897Z" transform="rotate(60 238.157 319.177)" fill="#647EA0"/>
<path d="M243.646,67.632L243.646,578.19L245.607,578.19L245.607,67.632L243.646,67.632Z" transform="rotate(60 244.626 322.911)" fill="#647EA0"/>
<path d="M250.115,71.367L250.115,581.925L252.075,581.925L252.075,71.367L250.115,71.367Z" transform="rotate(60 251.095 326.646)" fill="#647EA0"/>
<path d="M256.584,75.101L256.584,585.659L258.544,585.659L258.544,75.101L256.584,75.101Z" transform="rotate(60 257.564 330.381)" fill="#647EA0"/>
<path d="M263.053,78.837L263.053,589.395L265.013,589.395L265.013,78.837L263.053,78.837Z" transform="rotate(60 264.033 334.116)" fill="#647EA0"/>
<path d="M269.521,82.571L269.521,593.129L271.482,593.129L271.482,82.571L269.521,82.571Z" transform="rotate(60 270.502 337.85)" fill="#647EA0"/>
</svg>
