<svg width="1224" height="1148" viewBox="0 0 1224 1148" fill="none" xmlns="http://www.w3.org/2000/svg" xmlns:xlink="http://www.w3.org/1999/xlink">
<path d="M168.378,0.11L168.378,683.62L173.378,683.62L173.378,0.11L168.378,0.11Z" transform="rotate(60 170.878 341.865)" fill="#0E1947"/>
<path d="M200.992,18.94L200.992,702.45L205.992,702.45L205.992,18.94L200.992,18.94Z" transform="rotate(60 203.492 360.695)" fill="#0E1947"/>
<path d="M233.607,37.771L233.607,721.281L238.607,721.281L238.607,37.771L233.607,37.771Z" transform="rotate(60 236.107 379.526)" fill="#0E1947"/>
<path d="M266.221,56.601L266.221,740.111L271.221,740.111L271.221,56.601L266.221,56.601Z" transform="rotate(60 268.721 398.356)" fill="#0E1947"/>
<path d="M298.836,75.43L298.836,758.94L303.836,758.94L303.836,75.43L298.836,75.43Z" transform="rotate(60 301.336 417.185)" fill="#0E1947"/>
<path d="M331.45,94.26L331.45,777.77L336.45,777.77L336.45,94.26L331.45,94.26Z" transform="rotate(60 333.95 436.015)" fill="#0E1947"/>
<path d="M364.065,113.09L364.065,796.6L369.065,796.6L369.065,113.09L364.065,113.09Z" transform="rotate(60 366.565 454.845)" fill="#0E1947"/>
<path d="M396.679,131.92L396.679,815.43L401.679,815.43L401.679,131.92L396.679,131.92Z" transform="rotate(60 399.179 473.675)" fill="#0E1947"/>
<path d="M429.294,150.75L429.294,834.26L434.294,834.26L434.294,150.75L429.294,150.75Z" transform="rotate(60 431.794 492.506)" fill="#0E1947"/>
<path d="M461.908,169.581L461.908,853.091L466.908,853.091L466.908,169.581L461.908,169.581Z" transform="rotate(60 464.408 511.336)" fill="#0E1947"/>
<path d="M494.523,188.41L494.523,871.92L499.523,871.92L499.523,188.41L494.523,188.41Z" transform="rotate(60 497.023 530.165)" fill="#0E1947"/>
<path d="M527.137,207.24L527.137,890.75L532.137,890.75L532.137,207.24L527.137,207.24Z" transform="rotate(60 529.637 548.995)" fill="#0E1947"/>
<path d="M559.752,226.07L559.752,909.58L564.752,909.58L564.752,226.07L559.752,226.07Z" transform="rotate(60 562.252 567.825)" fill="#0E1947"/>
<path d="M592.366,244.9L592.366,928.41L597.366,928.41L597.366,244.9L592.366,244.9Z" transform="rotate(60 594.866 586.655)" fill="#0E1947"/>
<path d="M624.981,263.73L624.981,947.24L629.981,947.24L629.981,263.73L624.981,263.73Z" transform="rotate(60 627.481 605.486)" fill="#0E1947"/>
<path d="M657.595,282.561L657.595,966.071L662.595,966.071L662.595,282.561L657.595,282.561Z" transform="rotate(60 660.095 624.316)" fill="#0E1947"/>
<path d="M690.21,301.39L690.21,984.9L695.21,984.9L695.21,301.39L690.21,301.39Z" transform="rotate(60 692.71 643.145)" fill="#0E1947"/>
<path d="M722.824,320.22L722.824,1003.73L727.824,1003.73L727.824,320.22L722.824,320.22Z" transform="rotate(60 725.324 661.975)" fill="#0E1947"/>
<path d="M755.439,339.05L755.439,1022.56L760.439,1022.56L760.439,339.05L755.439,339.05Z" transform="rotate(60 757.939 680.805)" fill="#0E1947"/>
<path d="M788.053,357.88L788.053,1041.39L793.053,1041.39L793.053,357.88L788.053,357.88Z" transform="rotate(60 790.553 699.635)" fill="#0E1947"/>
<path d="M820.668,376.71L820.668,1060.22L825.668,1060.22L825.668,376.71L820.668,376.71Z" transform="rotate(60 823.168 718.466)" fill="#0E1947"/>
<path d="M853.282,395.54L853.282,1079.05L858.282,1079.05L858.282,395.54L853.282,395.54Z" transform="rotate(60 855.782 737.295)" fill="#0E1947"/>
<path d="M885.897,414.37L885.897,1097.88L890.897,1097.88L890.897,414.37L885.897,414.37Z" transform="rotate(60 888.397 756.125)" fill="#0E1947"/>
</svg>
