<svg width="148" height="240" viewBox="0 0 148 240" fill="none" xmlns="http://www.w3.org/2000/svg" xmlns:xlink="http://www.w3.org/1999/xlink">
<circle cx="4.301" cy="4.338" r="4.337" fill="#647EA0"/>
<circle cx="4.301" cy="27.47" r="4.337" fill="#647EA0"/>
<circle cx="27.434" cy="27.47" r="4.337" fill="#647EA0"/>
<circle cx="4.301" cy="50.603" r="4.337" fill="#647EA0"/>
<circle cx="27.434" cy="50.603" r="4.337" fill="#647EA0"/>
<circle cx="50.566" cy="50.603" r="4.337" fill="#647EA0"/>
<circle cx="4.301" cy="73.735" r="4.337" fill="#647EA0"/>
<circle cx="27.434" cy="73.735" r="4.337" fill="#647EA0"/>
<circle cx="50.566" cy="73.735" r="4.337" fill="#647EA0"/>
<circle cx="73.699" cy="73.735" r="4.337" fill="#647EA0"/>
<circle cx="4.301" cy="96.868" r="4.337" fill="#647EA0"/>
<circle cx="27.434" cy="96.868" r="4.337" fill="#647EA0"/>
<circle cx="50.566" cy="96.868" r="4.337" fill="#647EA0"/>
<circle cx="73.699" cy="96.868" r="4.337" fill="#647EA0"/>
<circle cx="96.831" cy="96.868" r="4.337" fill="#647EA0"/>
<circle cx="4.301" cy="120.001" r="4.337" fill="#647EA0"/>
<circle cx="27.434" cy="120.001" r="4.337" fill="#647EA0"/>
<circle cx="50.566" cy="120.001" r="4.337" fill="#647EA0"/>
<circle cx="73.699" cy="120.001" r="4.337" fill="#647EA0"/>
<circle cx="96.831" cy="120.001" r="4.337" fill="#647EA0"/>
<circle cx="119.964" cy="120.001" r="4.337" fill="#647EA0"/>
<circle cx="4.301" cy="143.133" r="4.337" fill="#647EA0"/>
<circle cx="27.434" cy="143.133" r="4.337" fill="#647EA0"/>
<circle cx="50.566" cy="143.133" r="4.337" fill="#647EA0"/>
<circle cx="73.699" cy="143.133" r="4.337" fill="#647EA0"/>
<circle cx="96.831" cy="143.133" r="4.337" fill="#647EA0"/>
<circle cx="119.964" cy="143.133" r="4.337" fill="#647EA0"/>
<circle cx="143.096" cy="143.133" r="4.337" fill="#647EA0"/>
<circle cx="4.301" cy="166.266" r="4.337" fill="#647EA0"/>
<circle cx="27.434" cy="166.266" r="4.337" fill="#647EA0"/>
<circle cx="50.566" cy="166.266" r="4.337" fill="#647EA0"/>
<circle cx="73.699" cy="166.266" r="4.337" fill="#647EA0"/>
<circle cx="96.831" cy="166.266" r="4.337" fill="#647EA0"/>
<circle cx="119.964" cy="166.266" r="4.337" fill="#647EA0"/>
<circle cx="143.096" cy="166.266" r="4.337" fill="#647EA0"/>
<circle cx="4.301" cy="189.398" r="4.337" fill="#647EA0"/>
<circle cx="27.434" cy="189.398" r="4.337" fill="#647EA0"/>
<circle cx="50.566" cy="189.398" r="4.337" fill="#647EA0"/>
<circle cx="73.699" cy="189.398" r="4.337" fill="#647EA0"/>
<circle cx="96.831" cy="189.398" r="4.337" fill="#647EA0"/>
<circle cx="119.964" cy="189.398" r="4.337" fill="#647EA0"/>
<circle cx="143.096" cy="189.398" r="4.337" fill="#647EA0"/>
<circle cx="4.301" cy="212.531" r="4.337" fill="#647EA0"/>
<circle cx="27.434" cy="212.531" r="4.337" fill="#647EA0"/>
<circle cx="50.566" cy="212.531" r="4.337" fill="#647EA0"/>
<circle cx="73.699" cy="212.531" r="4.337" fill="#647EA0"/>
<circle cx="96.831" cy="212.531" r="4.337" fill="#647EA0"/>
<circle cx="119.964" cy="212.531" r="4.337" fill="#647EA0"/>
<circle cx="143.096" cy="212.531" r="4.337" fill="#647EA0"/>
<circle cx="4.301" cy="235.663" r="4.337" fill="#647EA0"/>
<circle cx="27.434" cy="235.663" r="4.337" fill="#647EA0"/>
<circle cx="50.566" cy="235.663" r="4.337" fill="#647EA0"/>
<circle cx="73.699" cy="235.663" r="4.337" fill="#647EA0"/>
<circle cx="96.831" cy="235.663" r="4.337" fill="#647EA0"/>
<circle cx="119.964" cy="235.663" r="4.337" fill="#647EA0"/>
<circle cx="143.096" cy="235.663" r="4.337" fill="#647EA0"/>
<rect  x="140.088" y="15.408" width="67.444" height="11.566" transform="rotate(270 140.088 15.408)" fill="#0E1947"/>
<path d="M141.651,5.784L147.434,5.784L147.434,0.001L141.651,0.001L141.651,5.784ZM34.663,11.567L141.651,11.567L141.651,0.001L34.663,0.001L34.663,11.567ZM135.867,5.784L135.867,112.772L147.434,112.772L147.434,5.784L135.867,5.784Z" fill="#0E1947"/>
</svg>
