<svg width="1224" height="1148" viewBox="0 0 1224 1148" fill="none" xmlns="http://www.w3.org/2000/svg" xmlns:xlink="http://www.w3.org/1999/xlink">
<path d="M169.878,0.11L169.878,683.62L171.878,683.62L171.878,0.11L169.878,0.11Z" transform="rotate(60 170.878 341.865)" fill="#0E1947"/>
<path d="M178.538,5.11L178.538,688.62L180.538,688.62L180.538,5.11L178.538,5.11Z" transform="rotate(60 179.538 346.865)" fill="#0E1947"/>
<path d="M187.198,10.11L187.198,693.62L189.198,693.62L189.198,10.11L187.198,10.11Z" transform="rotate(60 188.198 351.865)" fill="#0E1947"/>
<path d="M195.858,15.11L195.858,698.62L197.858,698.62L197.858,15.11L195.858,15.11Z" transform="rotate(60 196.858 356.865)" fill="#0E1947"/>
<path d="M204.519,20.11L204.519,703.62L206.519,703.62L206.519,20.11L204.519,20.11Z" transform="rotate(60 205.519 361.865)" fill="#0E1947"/>
<path d="M213.179,25.11L213.179,708.62L215.179,708.62L215.179,25.11L213.179,25.11Z" transform="rotate(60 214.179 366.865)" fill="#0E1947"/>
<path d="M221.839,30.11L221.839,713.62L223.839,713.62L223.839,30.11L221.839,30.11Z" transform="rotate(60 222.839 371.865)" fill="#0E1947"/>
<path d="M230.499,35.11L230.499,718.62L232.499,718.62L232.499,35.11L230.499,35.11Z" transform="rotate(60 231.499 376.865)" fill="#0E1947"/>
<path d="M239.16,40.11L239.16,723.62L241.16,723.62L241.16,40.11L239.16,40.11Z" transform="rotate(60 240.16 381.865)" fill="#0E1947"/>
<path d="M247.82,45.11L247.82,728.62L249.82,728.62L249.82,45.11L247.82,45.11Z" transform="rotate(60 248.82 386.865)" fill="#0E1947"/>
<path d="M256.48,50.11L256.48,733.62L258.48,733.62L258.48,50.11L256.48,50.11Z" transform="rotate(60 257.48 391.865)" fill="#0E1947"/>
<path d="M265.14,55.11L265.14,738.62L267.14,738.62L267.14,55.11L265.14,55.11Z" transform="rotate(60 266.14 396.865)" fill="#0E1947"/>
<path d="M273.801,60.11L273.801,743.62L275.801,743.62L275.801,60.11L273.801,60.11Z" transform="rotate(60 274.801 401.865)" fill="#0E1947"/>
<path d="M282.461,65.11L282.461,748.62L284.461,748.62L284.461,65.11L282.461,65.11Z" transform="rotate(60 283.461 406.865)" fill="#0E1947"/>
<path d="M291.121,70.11L291.121,753.62L293.121,753.62L293.121,70.11L291.121,70.11Z" transform="rotate(60 292.121 411.865)" fill="#0E1947"/>
<path d="M299.781,75.11L299.781,758.62L301.781,758.62L301.781,75.11L299.781,75.11Z" transform="rotate(60 300.781 416.865)" fill="#0E1947"/>
<path d="M308.441,80.11L308.441,763.62L310.441,763.62L310.441,80.11L308.441,80.11Z" transform="rotate(60 309.441 421.865)" fill="#0E1947"/>
<path d="M317.102,85.11L317.102,768.62L319.102,768.62L319.102,85.11L317.102,85.11Z" transform="rotate(60 318.102 426.865)" fill="#0E1947"/>
<path d="M325.762,90.11L325.762,773.62L327.762,773.62L327.762,90.11L325.762,90.11Z" transform="rotate(60 326.762 431.865)" fill="#0E1947"/>
<path d="M334.422,95.11L334.422,778.62L336.422,778.62L336.422,95.11L334.422,95.11Z" transform="rotate(60 335.422 436.865)" fill="#0E1947"/>
<path d="M343.083,100.11L343.083,783.62L345.083,783.62L345.083,100.11L343.083,100.11Z" transform="rotate(60 344.083 441.865)" fill="#0E1947"/>
<path d="M351.743,105.11L351.743,788.62L353.743,788.62L353.743,105.11L351.743,105.11Z" transform="rotate(60 352.743 446.865)" fill="#0E1947"/>
<path d="M360.403,110.11L360.403,793.62L362.403,793.62L362.403,110.11L360.403,110.11Z" transform="rotate(60 361.403 451.865)" fill="#0E1947"/>
</svg>
