<svg width="798" height="1010" viewBox="0 0 798 1010" fill="none" xmlns="http://www.w3.org/2000/svg" xmlns:xlink="http://www.w3.org/1999/xlink">
<circle cx="437.293" cy="154.338" r="4.337" fill="#647EA0"/>
<circle cx="460.426" cy="154.338" r="4.337" fill="#647EA0"/>
<circle cx="483.558" cy="154.338" r="4.337" fill="#647EA0"/>
<circle cx="506.691" cy="154.338" r="4.337" fill="#647EA0"/>
<circle cx="529.823" cy="154.338" r="4.337" fill="#647EA0"/>
<circle cx="552.956" cy="154.338" r="4.337" fill="#647EA0"/>
<circle cx="576.088" cy="154.338" r="4.337" fill="#647EA0"/>
<circle cx="437.293" cy="177.47" r="4.337" fill="#647EA0"/>
<circle cx="460.426" cy="177.47" r="4.337" fill="#647EA0"/>
<circle cx="483.558" cy="177.47" r="4.337" fill="#647EA0"/>
<circle cx="506.691" cy="177.47" r="4.337" fill="#647EA0"/>
<circle cx="529.823" cy="177.47" r="4.337" fill="#647EA0"/>
<circle cx="552.956" cy="177.47" r="4.337" fill="#647EA0"/>
<circle cx="576.088" cy="177.47" r="4.337" fill="#647EA0"/>
<circle cx="437.293" cy="200.603" r="4.337" fill="#647EA0"/>
<circle cx="460.426" cy="200.603" r="4.337" fill="#647EA0"/>
<circle cx="483.558" cy="200.603" r="4.337" fill="#647EA0"/>
<circle cx="506.691" cy="200.603" r="4.337" fill="#647EA0"/>
<circle cx="529.823" cy="200.603" r="4.337" fill="#647EA0"/>
<circle cx="552.956" cy="200.603" r="4.337" fill="#647EA0"/>
<circle cx="576.088" cy="200.603" r="4.337" fill="#647EA0"/>
<circle cx="437.293" cy="223.735" r="4.337" fill="#647EA0"/>
<circle cx="460.426" cy="223.735" r="4.337" fill="#647EA0"/>
<circle cx="483.558" cy="223.735" r="4.337" fill="#647EA0"/>
<circle cx="506.691" cy="223.735" r="4.337" fill="#647EA0"/>
<circle cx="529.823" cy="223.735" r="4.337" fill="#647EA0"/>
<circle cx="552.956" cy="223.735" r="4.337" fill="#647EA0"/>
<circle cx="576.088" cy="223.735" r="4.337" fill="#647EA0"/>
<circle cx="437.293" cy="246.868" r="4.337" fill="#647EA0"/>
<circle cx="460.426" cy="246.868" r="4.337" fill="#647EA0"/>
<circle cx="483.558" cy="246.868" r="4.337" fill="#647EA0"/>
<circle cx="506.691" cy="246.868" r="4.337" fill="#647EA0"/>
<circle cx="529.823" cy="246.868" r="4.337" fill="#647EA0"/>
<circle cx="552.956" cy="246.868" r="4.337" fill="#647EA0"/>
<circle cx="576.088" cy="246.868" r="4.337" fill="#647EA0"/>
<circle cx="437.293" cy="270" r="4.337" fill="#647EA0"/>
<circle cx="460.426" cy="270" r="4.337" fill="#647EA0"/>
<circle cx="483.558" cy="270" r="4.337" fill="#647EA0"/>
<circle cx="506.691" cy="270" r="4.337" fill="#647EA0"/>
<circle cx="529.823" cy="270" r="4.337" fill="#647EA0"/>
<circle cx="437.293" cy="293.133" r="4.337" fill="#647EA0"/>
<circle cx="460.426" cy="293.133" r="4.337" fill="#647EA0"/>
<circle cx="483.558" cy="293.133" r="4.337" fill="#647EA0"/>
<circle cx="506.691" cy="293.133" r="4.337" fill="#647EA0"/>
<circle cx="529.823" cy="293.133" r="4.337" fill="#647EA0"/>
<circle cx="437.293" cy="316.266" r="4.337" fill="#647EA0"/>
<circle cx="460.426" cy="316.266" r="4.337" fill="#647EA0"/>
<circle cx="483.558" cy="316.266" r="4.337" fill="#647EA0"/>
<circle cx="506.691" cy="316.266" r="4.337" fill="#647EA0"/>
<circle cx="529.823" cy="316.266" r="4.337" fill="#647EA0"/>
<circle cx="437.293" cy="339.398" r="4.337" fill="#647EA0"/>
<circle cx="460.426" cy="339.398" r="4.337" fill="#647EA0"/>
<circle cx="483.558" cy="339.398" r="4.337" fill="#647EA0"/>
<circle cx="506.691" cy="339.398" r="4.337" fill="#647EA0"/>
<circle cx="529.823" cy="339.398" r="4.337" fill="#647EA0"/>
<circle cx="437.293" cy="362.53" r="4.337" fill="#647EA0"/>
<circle cx="460.426" cy="362.53" r="4.337" fill="#647EA0"/>
<circle cx="483.558" cy="362.53" r="4.337" fill="#647EA0"/>
<circle cx="506.691" cy="362.53" r="4.337" fill="#647EA0"/>
<circle cx="529.823" cy="362.53" r="4.337" fill="#647EA0"/>
<circle cx="437.293" cy="385.663" r="4.337" fill="#647EA0"/>
<circle cx="460.426" cy="385.663" r="4.337" fill="#647EA0"/>
<circle cx="483.558" cy="385.663" r="4.337" fill="#647EA0"/>
<circle cx="506.691" cy="385.663" r="4.337" fill="#647EA0"/>
<circle cx="529.823" cy="385.663" r="4.337" fill="#647EA0"/>
<path d="M580.646,0.45L580.646,494.554L584.261,494.554L584.261,0.45L580.646,0.45Z" transform="rotate(240 582.454 247.502)" fill="#0E1947"/>
<path d="M571.032,17.103L571.032,511.207L574.646,511.207L574.646,17.103L571.032,17.103Z" transform="rotate(240 572.839 264.155)" fill="#0E1947"/>
<path d="M561.417,33.756L561.417,527.86L565.032,527.86L565.032,33.756L561.417,33.756Z" transform="rotate(240 563.225 280.808)" fill="#0E1947"/>
<path d="M551.803,50.409L551.803,544.513L555.418,544.513L555.418,50.409L551.803,50.409Z" transform="rotate(240 553.61 297.46)" fill="#0E1947"/>
<path d="M542.189,67.061L542.189,561.165L545.803,561.165L545.803,67.061L542.189,67.061Z" transform="rotate(240 543.996 314.113)" fill="#0E1947"/>
<path d="M532.574,83.714L532.574,577.818L536.189,577.818L536.189,83.714L532.574,83.714Z" transform="rotate(240 534.381 330.766)" fill="#0E1947"/>
<path d="M522.96,100.367L522.96,594.471L526.574,594.471L526.574,100.367L522.96,100.367Z" transform="rotate(240 524.767 347.418)" fill="#0E1947"/>
<path d="M513.345,117.019L513.345,611.123L516.96,611.123L516.96,117.019L513.345,117.019Z" transform="rotate(240 515.152 364.07)" fill="#0E1947"/>
<path d="M503.731,133.672L503.731,627.776L507.345,627.776L507.345,133.672L503.731,133.672Z" transform="rotate(240 505.538 380.724)" fill="#0E1947"/>
<path d="M494.116,150.325L494.116,644.429L497.731,644.429L497.731,150.325L494.116,150.325Z" transform="rotate(240 495.924 397.377)" fill="#0E1947"/>
<path d="M484.502,166.977L484.502,661.081L488.116,661.081L488.116,166.977L484.502,166.977Z" transform="rotate(240 486.309 414.029)" fill="#0E1947"/>
<path d="M474.887,183.631L474.887,677.735L478.502,677.735L478.502,183.631L474.887,183.631Z" transform="rotate(240 476.695 430.683)" fill="#0E1947"/>
<path d="M465.273,200.283L465.273,694.387L468.887,694.387L468.887,200.283L465.273,200.283Z" transform="rotate(240 467.08 447.335)" fill="#0E1947"/>
<path d="M455.658,216.936L455.658,711.04L459.273,711.04L459.273,216.936L455.658,216.936Z" transform="rotate(240 457.466 463.988)" fill="#0E1947"/>
<path d="M446.044,233.588L446.044,727.692L449.658,727.692L449.658,233.588L446.044,233.588Z" transform="rotate(240 447.851 480.64)" fill="#0E1947"/>
<path d="M436.43,250.241L436.43,744.345L440.044,744.345L440.044,250.241L436.43,250.241Z" transform="rotate(240 438.237 497.293)" fill="#0E1947"/>
<path d="M426.815,266.894L426.815,760.998L430.43,760.998L430.43,266.894L426.815,266.894Z" transform="rotate(240 428.622 513.945)" fill="#0E1947"/>
<path d="M417.201,283.546L417.201,777.65L420.815,777.65L420.815,283.546L417.201,283.546Z" transform="rotate(240 419.008 530.598)" fill="#0E1947"/>
<path d="M407.586,300.2L407.586,794.304L411.201,794.304L411.201,300.2L407.586,300.2Z" transform="rotate(240 409.393 547.252)" fill="#0E1947"/>
<path d="M397.972,316.852L397.972,810.956L401.586,810.956L401.586,316.852L397.972,316.852Z" transform="rotate(240 399.779 563.903)" fill="#0E1947"/>
<rect  x="545.36" y="346.748" width="49.603" height="11.565" transform="rotate(90 545.36 346.748)" fill="#0E1947"/>
<path d="M561.618,314.803C561.618,345.941 536.376,371.183 505.238,371.183C474.1,371.183 448.858,345.941 448.858,314.803C448.858,283.666 474.1,258.423 505.238,258.423C536.376,258.423 561.618,283.666 561.618,314.803ZM460.353,314.803C460.353,339.593 480.449,359.689 505.238,359.689C530.028,359.689 550.123,339.593 550.123,314.803C550.123,290.014 530.028,269.918 505.238,269.918C480.449,269.918 460.353,290.014 460.353,314.803Z" fill="#0E1947"/>
</svg>
