<svg width="538" height="546" viewBox="0 0 538 546" fill="none" xmlns="http://www.w3.org/2000/svg" xmlns:xlink="http://www.w3.org/1999/xlink">
<mask id="mask_0_41_5973" style="mask-type:alpha" maskUnits="userSpaceOnUse" x="35.263" y="43.156753" width="251.329047" height="251.329047">
<rect  x="35.263" y="372.76" width="466.129" height="244.737" transform="rotate(-90 35.263 372.76)" fill="#D9D9D9"/>
</mask>
<circle cx="1.711" cy="183.974" r="1.974" fill="#0E1947"/>
<circle cx="13.398" cy="183.974" r="1.974" fill="#0E1947"/>
<circle cx="25.085" cy="183.974" r="1.974" fill="#0E1947"/>
<circle cx="36.772" cy="183.974" r="1.974" fill="#0E1947"/>
<circle cx="48.46" cy="183.974" r="1.974" fill="#0E1947"/>
<circle cx="60.147" cy="183.974" r="1.974" fill="#0E1947"/>
<circle cx="71.834" cy="183.974" r="1.974" fill="#0E1947"/>
<circle cx="83.522" cy="183.974" r="1.974" fill="#0E1947"/>
<circle cx="95.209" cy="183.974" r="1.974" fill="#0E1947"/>
<circle cx="106.896" cy="183.974" r="1.974" fill="#0E1947"/>
<circle cx="118.583" cy="183.974" r="1.974" fill="#0E1947"/>
<circle cx="130.271" cy="183.974" r="1.974" fill="#0E1947"/>
<circle cx="141.958" cy="183.974" r="1.974" fill="#0E1947"/>
<circle cx="153.645" cy="183.974" r="1.974" fill="#0E1947"/>
<circle cx="165.333" cy="183.974" r="1.974" fill="#0E1947"/>
<circle cx="177.02" cy="183.974" r="1.974" fill="#0E1947"/>
<circle cx="188.707" cy="183.974" r="1.974" fill="#0E1947"/>
<circle cx="200.395" cy="183.974" r="1.974" fill="#0E1947"/>
<circle cx="212.082" cy="183.974" r="1.974" fill="#0E1947"/>
<circle cx="1.71" cy="195.661" r="1.974" fill="#0E1947"/>
<circle cx="13.398" cy="195.661" r="1.974" fill="#0E1947"/>
<circle cx="25.085" cy="195.661" r="1.974" fill="#0E1947"/>
<circle cx="36.772" cy="195.661" r="1.974" fill="#0E1947"/>
<circle cx="48.46" cy="195.661" r="1.974" fill="#0E1947"/>
<circle cx="60.147" cy="195.661" r="1.974" fill="#0E1947"/>
<circle cx="71.834" cy="195.661" r="1.974" fill="#0E1947"/>
<circle cx="83.522" cy="195.661" r="1.974" fill="#0E1947"/>
<circle cx="95.209" cy="195.661" r="1.974" fill="#0E1947"/>
<circle cx="106.896" cy="195.661" r="1.974" fill="#0E1947"/>
<circle cx="118.584" cy="195.661" r="1.974" fill="#0E1947"/>
<circle cx="130.271" cy="195.661" r="1.974" fill="#0E1947"/>
<circle cx="141.958" cy="195.661" r="1.974" fill="#0E1947"/>
<circle cx="153.645" cy="195.661" r="1.974" fill="#0E1947"/>
<circle cx="165.333" cy="195.661" r="1.974" fill="#0E1947"/>
<circle cx="177.02" cy="195.661" r="1.974" fill="#0E1947"/>
<circle cx="188.707" cy="195.661" r="1.974" fill="#0E1947"/>
<circle cx="200.395" cy="195.661" r="1.974" fill="#0E1947"/>
<circle cx="1.71" cy="207.349" r="1.974" fill="#0E1947"/>
<circle cx="13.398" cy="207.349" r="1.974" fill="#0E1947"/>
<circle cx="25.085" cy="207.349" r="1.974" fill="#0E1947"/>
<circle cx="36.772" cy="207.349" r="1.974" fill="#0E1947"/>
<circle cx="48.46" cy="207.349" r="1.974" fill="#0E1947"/>
<circle cx="60.147" cy="207.349" r="1.974" fill="#0E1947"/>
<circle cx="71.834" cy="207.349" r="1.974" fill="#0E1947"/>
<circle cx="83.522" cy="207.349" r="1.974" fill="#0E1947"/>
<circle cx="95.209" cy="207.349" r="1.974" fill="#0E1947"/>
<circle cx="106.896" cy="207.349" r="1.974" fill="#0E1947"/>
<circle cx="118.584" cy="207.349" r="1.974" fill="#0E1947"/>
<circle cx="130.271" cy="207.349" r="1.974" fill="#0E1947"/>
<circle cx="141.958" cy="207.349" r="1.974" fill="#0E1947"/>
<circle cx="153.645" cy="207.349" r="1.974" fill="#0E1947"/>
<circle cx="165.333" cy="207.349" r="1.974" fill="#0E1947"/>
<circle cx="177.02" cy="207.349" r="1.974" fill="#0E1947"/>
<circle cx="188.707" cy="207.349" r="1.974" fill="#0E1947"/>
<circle cx="1.71" cy="219.036" r="1.974" fill="#0E1947"/>
<circle cx="13.398" cy="219.036" r="1.974" fill="#0E1947"/>
<circle cx="25.085" cy="219.036" r="1.974" fill="#0E1947"/>
<circle cx="36.772" cy="219.036" r="1.974" fill="#0E1947"/>
<circle cx="48.46" cy="219.036" r="1.974" fill="#0E1947"/>
<circle cx="60.147" cy="219.036" r="1.974" fill="#0E1947"/>
<circle cx="71.834" cy="219.036" r="1.974" fill="#0E1947"/>
<circle cx="83.522" cy="219.036" r="1.974" fill="#0E1947"/>
<circle cx="95.209" cy="219.036" r="1.974" fill="#0E1947"/>
<circle cx="106.896" cy="219.036" r="1.974" fill="#0E1947"/>
<circle cx="118.584" cy="219.036" r="1.974" fill="#0E1947"/>
<circle cx="130.271" cy="219.036" r="1.974" fill="#0E1947"/>
<circle cx="141.958" cy="219.036" r="1.974" fill="#0E1947"/>
<circle cx="153.645" cy="219.036" r="1.974" fill="#0E1947"/>
<circle cx="165.333" cy="219.036" r="1.974" fill="#0E1947"/>
<circle cx="177.02" cy="219.036" r="1.974" fill="#0E1947"/>
<circle cx="1.71" cy="230.723" r="1.974" fill="#0E1947"/>
<circle cx="13.398" cy="230.723" r="1.974" fill="#0E1947"/>
<circle cx="25.085" cy="230.723" r="1.974" fill="#0E1947"/>
<circle cx="36.772" cy="230.723" r="1.974" fill="#0E1947"/>
<circle cx="48.46" cy="230.723" r="1.974" fill="#0E1947"/>
<circle cx="60.147" cy="230.723" r="1.974" fill="#0E1947"/>
<circle cx="71.834" cy="230.723" r="1.974" fill="#0E1947"/>
<circle cx="83.522" cy="230.723" r="1.974" fill="#0E1947"/>
<circle cx="95.209" cy="230.723" r="1.974" fill="#0E1947"/>
<circle cx="106.896" cy="230.723" r="1.974" fill="#0E1947"/>
<circle cx="118.584" cy="230.723" r="1.974" fill="#0E1947"/>
<circle cx="130.271" cy="230.723" r="1.974" fill="#0E1947"/>
<circle cx="141.958" cy="230.723" r="1.974" fill="#0E1947"/>
<circle cx="153.645" cy="230.723" r="1.974" fill="#0E1947"/>
<circle cx="165.333" cy="230.723" r="1.974" fill="#0E1947"/>
<circle cx="1.71" cy="242.41" r="1.974" fill="#0E1947"/>
<circle cx="13.398" cy="242.41" r="1.974" fill="#0E1947"/>
<circle cx="25.085" cy="242.41" r="1.974" fill="#0E1947"/>
<circle cx="36.772" cy="242.41" r="1.974" fill="#0E1947"/>
<circle cx="48.46" cy="242.41" r="1.974" fill="#0E1947"/>
<circle cx="60.147" cy="242.41" r="1.974" fill="#0E1947"/>
<circle cx="71.834" cy="242.41" r="1.974" fill="#0E1947"/>
<circle cx="83.522" cy="242.41" r="1.974" fill="#0E1947"/>
<circle cx="95.209" cy="242.41" r="1.974" fill="#0E1947"/>
<circle cx="106.896" cy="242.41" r="1.974" fill="#0E1947"/>
<circle cx="118.584" cy="242.41" r="1.974" fill="#0E1947"/>
<circle cx="130.271" cy="242.41" r="1.974" fill="#0E1947"/>
<circle cx="141.958" cy="242.41" r="1.974" fill="#0E1947"/>
<circle cx="153.645" cy="242.41" r="1.974" fill="#0E1947"/>
<circle cx="1.71" cy="254.098" r="1.974" fill="#0E1947"/>
<circle cx="13.398" cy="254.098" r="1.974" fill="#0E1947"/>
<circle cx="25.085" cy="254.098" r="1.974" fill="#0E1947"/>
<circle cx="36.772" cy="254.098" r="1.974" fill="#0E1947"/>
<circle cx="48.46" cy="254.098" r="1.974" fill="#0E1947"/>
<circle cx="60.147" cy="254.098" r="1.974" fill="#0E1947"/>
<circle cx="71.834" cy="254.098" r="1.974" fill="#0E1947"/>
<circle cx="83.522" cy="254.098" r="1.974" fill="#0E1947"/>
<circle cx="95.209" cy="254.098" r="1.974" fill="#0E1947"/>
<circle cx="106.896" cy="254.098" r="1.974" fill="#0E1947"/>
<circle cx="118.584" cy="254.098" r="1.974" fill="#0E1947"/>
<circle cx="130.271" cy="254.098" r="1.974" fill="#0E1947"/>
<circle cx="141.958" cy="254.098" r="1.974" fill="#0E1947"/>
<circle cx="1.71" cy="265.785" r="1.974" fill="#0E1947"/>
<circle cx="13.398" cy="265.785" r="1.974" fill="#0E1947"/>
<circle cx="25.085" cy="265.785" r="1.974" fill="#0E1947"/>
<circle cx="36.772" cy="265.785" r="1.974" fill="#0E1947"/>
<circle cx="48.46" cy="265.785" r="1.974" fill="#0E1947"/>
<circle cx="60.147" cy="265.785" r="1.974" fill="#0E1947"/>
<circle cx="71.834" cy="265.785" r="1.974" fill="#0E1947"/>
<circle cx="83.522" cy="265.785" r="1.974" fill="#0E1947"/>
<circle cx="95.209" cy="265.785" r="1.974" fill="#0E1947"/>
<circle cx="106.896" cy="265.785" r="1.974" fill="#0E1947"/>
<circle cx="118.584" cy="265.785" r="1.974" fill="#0E1947"/>
<circle cx="130.271" cy="265.785" r="1.974" fill="#0E1947"/>
<circle cx="1.71" cy="277.472" r="1.974" fill="#0E1947"/>
<circle cx="13.398" cy="277.472" r="1.974" fill="#0E1947"/>
<circle cx="25.085" cy="277.472" r="1.974" fill="#0E1947"/>
<circle cx="36.772" cy="277.472" r="1.974" fill="#0E1947"/>
<circle cx="48.46" cy="277.472" r="1.974" fill="#0E1947"/>
<circle cx="60.147" cy="277.472" r="1.974" fill="#0E1947"/>
<circle cx="71.834" cy="277.472" r="1.974" fill="#0E1947"/>
<circle cx="83.522" cy="277.472" r="1.974" fill="#0E1947"/>
<circle cx="95.209" cy="277.472" r="1.974" fill="#0E1947"/>
<circle cx="106.896" cy="277.472" r="1.974" fill="#0E1947"/>
<circle cx="118.584" cy="277.472" r="1.974" fill="#0E1947"/>
<circle cx="1.711" cy="289.159" r="1.974" fill="#0E1947"/>
<circle cx="13.398" cy="289.159" r="1.974" fill="#0E1947"/>
<circle cx="25.085" cy="289.159" r="1.974" fill="#0E1947"/>
<circle cx="36.773" cy="289.159" r="1.974" fill="#0E1947"/>
<circle cx="48.46" cy="289.159" r="1.974" fill="#0E1947"/>
<circle cx="60.147" cy="289.159" r="1.974" fill="#0E1947"/>
<circle cx="71.834" cy="289.159" r="1.974" fill="#0E1947"/>
<circle cx="83.522" cy="289.159" r="1.974" fill="#0E1947"/>
<circle cx="95.209" cy="289.159" r="1.974" fill="#0E1947"/>
<circle cx="106.896" cy="289.159" r="1.974" fill="#0E1947"/>
<circle cx="1.711" cy="300.847" r="1.974" fill="#0E1947"/>
<circle cx="13.398" cy="300.847" r="1.974" fill="#0E1947"/>
<circle cx="25.085" cy="300.847" r="1.974" fill="#0E1947"/>
<circle cx="36.773" cy="300.847" r="1.974" fill="#0E1947"/>
<circle cx="48.46" cy="300.847" r="1.974" fill="#0E1947"/>
<circle cx="60.147" cy="300.847" r="1.974" fill="#0E1947"/>
<circle cx="71.834" cy="300.847" r="1.974" fill="#0E1947"/>
<circle cx="83.522" cy="300.847" r="1.974" fill="#0E1947"/>
<circle cx="95.209" cy="300.847" r="1.974" fill="#0E1947"/>
<circle cx="1.71" cy="312.534" r="1.974" fill="#0E1947"/>
<circle cx="13.398" cy="312.534" r="1.974" fill="#0E1947"/>
<circle cx="25.085" cy="312.534" r="1.974" fill="#0E1947"/>
<circle cx="36.772" cy="312.534" r="1.974" fill="#0E1947"/>
<circle cx="48.46" cy="312.534" r="1.974" fill="#0E1947"/>
<circle cx="60.147" cy="312.534" r="1.974" fill="#0E1947"/>
<circle cx="71.834" cy="312.534" r="1.974" fill="#0E1947"/>
<circle cx="83.522" cy="312.534" r="1.974" fill="#0E1947"/>
<circle cx="1.71" cy="324.222" r="1.974" fill="#0E1947"/>
<circle cx="13.398" cy="324.222" r="1.974" fill="#0E1947"/>
<circle cx="25.085" cy="324.222" r="1.974" fill="#0E1947"/>
<circle cx="36.772" cy="324.222" r="1.974" fill="#0E1947"/>
<circle cx="48.46" cy="324.222" r="1.974" fill="#0E1947"/>
<circle cx="60.147" cy="324.222" r="1.974" fill="#0E1947"/>
<circle cx="71.834" cy="324.222" r="1.974" fill="#0E1947"/>
<circle cx="1.71" cy="335.909" r="1.974" fill="#0E1947"/>
<circle cx="13.398" cy="335.909" r="1.974" fill="#0E1947"/>
<circle cx="25.085" cy="335.909" r="1.974" fill="#0E1947"/>
<circle cx="36.772" cy="335.909" r="1.974" fill="#0E1947"/>
<circle cx="48.46" cy="335.909" r="1.974" fill="#0E1947"/>
<circle cx="60.147" cy="335.909" r="1.974" fill="#0E1947"/>
<circle cx="1.71" cy="347.597" r="1.974" fill="#0E1947"/>
<circle cx="13.398" cy="347.597" r="1.974" fill="#0E1947"/>
<circle cx="25.085" cy="347.597" r="1.974" fill="#0E1947"/>
<circle cx="36.772" cy="347.597" r="1.974" fill="#0E1947"/>
<circle cx="48.46" cy="347.597" r="1.974" fill="#0E1947"/>
<g mask="url(#mask_0_41_5973)">
<path d="M13.09,390.28L237.929,0.847L236.219,-0.14L11.38,389.292L13.09,390.28ZM24.485,396.858L249.323,7.426L247.615,6.439L22.775,395.872L24.485,396.858ZM35.88,403.438L260.719,14.005L259.009,13.018L34.171,402.45L35.88,403.438ZM47.275,410.016L272.113,20.584L270.405,19.597L45.566,409.03L47.275,410.016ZM58.67,416.596L283.509,27.163L281.799,26.176L56.961,415.608L58.67,416.596ZM70.065,423.174L294.903,33.742L293.195,32.755L68.356,422.188L70.065,423.174ZM81.46,429.754L306.299,40.321L304.589,39.334L79.751,428.766L81.46,429.754ZM92.855,436.332L317.693,46.9L315.985,45.913L91.146,435.346L92.855,436.332ZM104.25,442.912L329.089,53.479L327.379,52.492L102.541,441.924L104.25,442.912ZM115.645,449.49L340.485,60.058L338.775,59.071L113.936,448.504L115.645,449.49ZM127.04,456.07L351.879,66.636L350.169,65.65L125.331,455.082L127.04,456.07ZM138.435,462.648L363.275,73.215L361.565,72.229L136.726,461.662L138.435,462.648ZM149.83,469.228L374.669,79.794L372.961,78.808L148.121,468.24L149.83,469.228ZM161.226,475.806L386.065,86.373L384.355,85.386L159.516,474.82L161.226,475.806ZM172.621,482.384L397.459,92.952L395.751,91.965L170.911,481.398L172.621,482.384ZM184.016,488.964L408.855,99.531L407.145,98.544L182.306,487.978L184.016,488.964ZM195.411,495.542L420.249,106.11L418.541,105.123L193.701,494.556L195.411,495.542ZM206.806,502.122L431.645,112.689L429.935,111.702L205.097,501.134L206.806,502.122ZM218.201,508.7L443.039,119.268L441.331,118.281L216.491,507.714L218.201,508.7ZM229.595,515.28L454.435,125.847L452.725,124.86L227.887,514.292L229.595,515.28ZM240.991,521.858L465.829,132.426L464.121,131.439L239.281,520.872L240.991,521.858ZM252.387,528.438L477.225,139.005L475.515,138.018L250.677,527.45L252.387,528.438ZM263.781,535.016L488.621,145.584L486.911,144.597L262.071,534.03L263.781,535.016Z" fill="#647EA0"/>
</g>
</svg>
