<svg width="56" height="56" viewBox="0 0 56 56" fill="none" xmlns="http://www.w3.org/2000/svg" xmlns:xlink="http://www.w3.org/1999/xlink">
<path d="M15.498,5.5L40.498,5.5L40.498,0.5L15.498,0.5L15.498,5.5ZM40.498,5.5C46.021,5.5 50.498,9.977 50.498,15.5L55.498,15.5C55.498,7.216 48.782,0.5 40.498,0.5L40.498,5.5ZM50.498,15.5L50.498,40.5L55.498,40.5L55.498,15.5L50.498,15.5ZM50.498,40.5C50.498,46.023 46.021,50.5 40.498,50.5L40.498,55.5C48.782,55.5 55.498,48.784 55.498,40.5L50.498,40.5ZM40.498,50.5L15.498,50.5L15.498,55.5L40.498,55.5L40.498,50.5ZM15.498,50.5C9.975,50.5 5.498,46.023 5.498,40.5L0.498,40.5C0.498,48.784 7.214,55.5 15.498,55.5L15.498,50.5ZM5.498,40.5L5.498,15.5L0.498,15.5L0.498,40.5L5.498,40.5ZM5.498,15.5C5.498,9.977 9.975,5.5 15.498,5.5L15.498,0.5C7.214,0.5 0.498,7.216 0.498,15.5L5.498,15.5Z" fill="#FF5F31"/>
<path d="M37.998,26.425L35.525,26.792L37.998,26.425ZM29.573,18L29.206,20.473L29.573,18ZM41.748,11.75C40.367,11.75 39.248,12.869 39.248,14.25C39.248,15.631 40.367,16.75 41.748,16.75L41.748,11.75ZM41.773,16.75C43.154,16.75 44.273,15.631 44.273,14.25C44.273,12.869 43.154,11.75 41.773,11.75L41.773,16.75ZM35.525,26.792C35.756,28.352 35.49,29.946 34.763,31.346L39.201,33.649C40.412,31.315 40.856,28.659 40.471,26.058L35.525,26.792ZM34.763,31.346C34.037,32.746 32.887,33.882 31.478,34.591L33.726,39.057C36.074,37.875 37.99,35.983 39.201,33.649L34.763,31.346ZM31.478,34.591C30.069,35.3 28.472,35.547 26.914,35.297L26.12,40.233C28.716,40.651 31.377,40.239 33.726,39.057L31.478,34.591ZM26.914,35.297C25.357,35.046 23.918,34.311 22.803,33.195L19.267,36.731C21.126,38.59 23.524,39.815 26.12,40.233L26.914,35.297ZM22.803,33.195C21.687,32.08 20.952,30.641 20.701,29.083L15.765,29.878C16.182,32.474 17.408,34.872 19.267,36.731L22.803,33.195ZM20.701,29.083C20.451,27.526 20.697,25.929 21.407,24.52L16.941,22.272C15.758,24.62 15.347,27.282 15.765,29.878L20.701,29.083ZM21.407,24.52C22.116,23.111 23.251,21.961 24.652,21.235L22.349,16.797C20.015,18.007 18.123,19.923 16.941,22.272L21.407,24.52ZM24.652,21.235C26.052,20.508 27.646,20.242 29.206,20.473L29.94,15.527C27.339,15.141 24.683,15.586 22.349,16.797L24.652,21.235ZM29.206,20.473C30.798,20.709 32.271,21.451 33.409,22.589L36.945,19.053C35.048,17.157 32.592,15.92 29.94,15.527L29.206,20.473ZM33.409,22.589C34.547,23.726 35.289,25.2 35.525,26.792L40.471,26.058C40.077,23.405 38.841,20.949 36.945,19.053L33.409,22.589ZM41.748,16.75L41.773,16.75L41.773,11.75L41.748,11.75L41.748,16.75Z" fill="#FF5F31"/>
</svg>
