<svg width="798" height="1010" viewBox="0 0 798 1010" fill="none" xmlns="http://www.w3.org/2000/svg" xmlns:xlink="http://www.w3.org/1999/xlink">
<circle cx="437.301" cy="154.338" r="4.337" fill="#647EA0"/>
<circle cx="460.434" cy="154.338" r="4.337" fill="#647EA0"/>
<circle cx="483.566" cy="154.338" r="4.337" fill="#647EA0"/>
<circle cx="506.699" cy="154.338" r="4.337" fill="#647EA0"/>
<circle cx="529.831" cy="154.338" r="4.337" fill="#647EA0"/>
<circle cx="552.964" cy="154.338" r="4.337" fill="#647EA0"/>
<circle cx="576.096" cy="154.338" r="4.337" fill="#647EA0"/>
<circle cx="437.301" cy="177.47" r="4.337" fill="#647EA0"/>
<circle cx="460.434" cy="177.47" r="4.337" fill="#647EA0"/>
<circle cx="483.566" cy="177.47" r="4.337" fill="#647EA0"/>
<circle cx="506.699" cy="177.47" r="4.337" fill="#647EA0"/>
<circle cx="529.831" cy="177.47" r="4.337" fill="#647EA0"/>
<circle cx="552.964" cy="177.47" r="4.337" fill="#647EA0"/>
<circle cx="576.096" cy="177.47" r="4.337" fill="#647EA0"/>
<circle cx="437.301" cy="200.603" r="4.337" fill="#647EA0"/>
<circle cx="460.434" cy="200.603" r="4.337" fill="#647EA0"/>
<circle cx="483.566" cy="200.603" r="4.337" fill="#647EA0"/>
<circle cx="506.699" cy="200.603" r="4.337" fill="#647EA0"/>
<circle cx="529.831" cy="200.603" r="4.337" fill="#647EA0"/>
<circle cx="552.964" cy="200.603" r="4.337" fill="#647EA0"/>
<circle cx="576.096" cy="200.603" r="4.337" fill="#647EA0"/>
<circle cx="437.301" cy="223.735" r="4.337" fill="#647EA0"/>
<circle cx="460.434" cy="223.735" r="4.337" fill="#647EA0"/>
<circle cx="483.566" cy="223.735" r="4.337" fill="#647EA0"/>
<circle cx="506.699" cy="223.735" r="4.337" fill="#647EA0"/>
<circle cx="529.831" cy="223.735" r="4.337" fill="#647EA0"/>
<circle cx="552.964" cy="223.735" r="4.337" fill="#647EA0"/>
<circle cx="576.096" cy="223.735" r="4.337" fill="#647EA0"/>
<circle cx="437.301" cy="246.868" r="4.337" fill="#647EA0"/>
<circle cx="460.434" cy="246.868" r="4.337" fill="#647EA0"/>
<circle cx="483.566" cy="246.868" r="4.337" fill="#647EA0"/>
<circle cx="506.699" cy="246.868" r="4.337" fill="#647EA0"/>
<circle cx="529.831" cy="246.868" r="4.337" fill="#647EA0"/>
<circle cx="552.964" cy="246.868" r="4.337" fill="#647EA0"/>
<circle cx="576.096" cy="246.868" r="4.337" fill="#647EA0"/>
<circle cx="437.301" cy="270.001" r="4.337" fill="#647EA0"/>
<circle cx="460.434" cy="270.001" r="4.337" fill="#647EA0"/>
<circle cx="483.566" cy="270.001" r="4.337" fill="#647EA0"/>
<circle cx="437.301" cy="293.133" r="4.337" fill="#647EA0"/>
<circle cx="460.434" cy="293.133" r="4.337" fill="#647EA0"/>
<circle cx="437.301" cy="316.266" r="4.337" fill="#647EA0"/>
<circle cx="437.301" cy="339.398" r="4.337" fill="#647EA0"/>
<circle cx="437.301" cy="362.531" r="4.337" fill="#647EA0"/>
<circle cx="460.434" cy="362.531" r="4.337" fill="#647EA0"/>
<circle cx="437.301" cy="385.663" r="4.337" fill="#647EA0"/>
<circle cx="460.434" cy="385.663" r="4.337" fill="#647EA0"/>
<circle cx="483.566" cy="385.663" r="4.337" fill="#647EA0"/>
<path d="M580.648,0.45L580.648,494.554L584.262,494.554L584.262,0.45L580.648,0.45Z" transform="rotate(240 582.455 247.502)" fill="#0E1947"/>
<path d="M571.033,17.103L571.033,511.207L574.648,511.207L574.648,17.103L571.033,17.103Z" transform="rotate(240 572.84 264.155)" fill="#0E1947"/>
<path d="M561.419,33.756L561.419,527.86L565.033,527.86L565.033,33.756L561.419,33.756Z" transform="rotate(240 563.226 280.808)" fill="#0E1947"/>
<path d="M551.804,50.409L551.804,544.513L555.419,544.513L555.419,50.409L551.804,50.409Z" transform="rotate(240 553.611 297.46)" fill="#0E1947"/>
<path d="M542.19,67.061L542.19,561.165L545.804,561.165L545.804,67.061L542.19,67.061Z" transform="rotate(240 543.997 314.113)" fill="#0E1947"/>
<path d="M532.575,83.714L532.575,577.818L536.19,577.818L536.19,83.714L532.575,83.714Z" transform="rotate(240 534.383 330.766)" fill="#0E1947"/>
<path d="M522.961,100.367L522.961,594.471L526.575,594.471L526.575,100.367L522.961,100.367Z" transform="rotate(240 524.768 347.418)" fill="#0E1947"/>
<path d="M513.346,117.019L513.346,611.123L516.961,611.123L516.961,117.019L513.346,117.019Z" transform="rotate(240 515.154 364.071)" fill="#0E1947"/>
<path d="M503.732,133.672L503.732,627.776L507.346,627.776L507.346,133.672L503.732,133.672Z" transform="rotate(240 505.539 380.724)" fill="#0E1947"/>
<path d="M494.118,150.325L494.118,644.429L497.732,644.429L497.732,150.325L494.118,150.325Z" transform="rotate(240 495.925 397.377)" fill="#0E1947"/>
<path d="M484.503,166.977L484.503,661.081L488.117,661.081L488.117,166.977L484.503,166.977Z" transform="rotate(240 486.31 414.029)" fill="#0E1947"/>
<path d="M474.888,183.631L474.888,677.735L478.503,677.735L478.503,183.631L474.888,183.631Z" transform="rotate(240 476.696 430.683)" fill="#0E1947"/>
<path d="M465.274,200.283L465.274,694.387L468.889,694.387L468.889,200.283L465.274,200.283Z" transform="rotate(240 467.081 447.335)" fill="#0E1947"/>
<path d="M455.66,216.936L455.66,711.04L459.274,711.04L459.274,216.936L455.66,216.936Z" transform="rotate(240 457.467 463.988)" fill="#0E1947"/>
<path d="M446.045,233.588L446.045,727.692L449.66,727.692L449.66,233.588L446.045,233.588Z" transform="rotate(240 447.852 480.64)" fill="#0E1947"/>
<path d="M436.431,250.241L436.431,744.345L440.045,744.345L440.045,250.241L436.431,250.241Z" transform="rotate(240 438.238 497.293)" fill="#0E1947"/>
<path d="M426.816,266.894L426.816,760.998L430.431,760.998L430.431,266.894L426.816,266.894Z" transform="rotate(240 428.623 513.945)" fill="#0E1947"/>
<path d="M417.202,283.546L417.202,777.65L420.816,777.65L420.816,283.546L417.202,283.546Z" transform="rotate(240 419.009 530.598)" fill="#0E1947"/>
<path d="M407.587,300.2L407.587,794.304L411.202,794.304L411.202,300.2L407.587,300.2Z" transform="rotate(240 409.395 547.252)" fill="#0E1947"/>
<path d="M397.973,316.852L397.973,810.956L401.587,810.956L401.587,316.852L397.973,316.852Z" transform="rotate(240 399.78 563.904)" fill="#0E1947"/>
<path d="M580.434,327.832C580.434,338.984 577.127,349.885 570.931,359.158C564.735,368.43 555.929,375.658 545.626,379.925C535.323,384.193 523.986,385.31 513.048,383.134C502.11,380.958 492.063,375.588 484.178,367.702C476.292,359.817 470.922,349.77 468.746,338.832C466.571,327.894 467.687,316.557 471.955,306.254C476.222,295.951 483.45,287.145 492.722,280.949C501.995,274.753 512.896,271.446 524.048,271.446L524.048,282.971C515.176,282.971 506.503,285.602 499.125,290.532C491.748,295.461 485.998,302.467 482.603,310.664C479.207,318.862 478.319,327.882 480.05,336.584C481.781,345.286 486.053,353.279 492.327,359.553C498.601,365.827 506.594,370.099 515.297,371.83C523.999,373.561 533.018,372.673 541.216,369.277C549.413,365.882 556.419,360.132 561.348,352.755C566.278,345.378 568.909,336.704 568.909,327.832L580.434,327.832Z" fill="#0E1947"/>
<path d="M524.273,339.398L520.175,343.478L524.273,347.594L528.371,343.478L524.273,339.398ZM493.926,317.116L520.175,343.478L528.371,335.317L502.122,308.955L493.926,317.116ZM528.371,343.478L580.195,291.43L571.998,283.269L520.175,335.317L528.371,343.478Z" fill="#0E1947"/>
<path d="M532,260.603L546.399,285.542L517.601,285.542L532,260.603Z" transform="rotate(180 532 277.229)" fill="#0E1947"/>
</svg>
