<svg width="48" height="46" viewBox="0 0 48 46" fill="none" xmlns="http://www.w3.org/2000/svg" xmlns:xlink="http://www.w3.org/1999/xlink">
<path d="M9.351,4.5C9.35,5.826 8.823,7.097 7.884,8.034C6.946,8.972 5.674,9.498 4.348,9.497C3.022,9.496 1.751,8.969 0.813,8.031C-0.124,7.093 -0.65,5.821 -0.649,4.495C-0.649,3.168 -0.121,1.897 0.817,0.96C1.755,0.023 3.027,-0.504 4.353,-0.503C5.679,-0.502 6.951,0.025 7.888,0.963C8.825,1.901 9.351,3.173 9.351,4.5ZM9.501,13.2L-0.499,13.2L-0.499,44.499L9.501,44.499L9.501,13.2ZM25.301,13.2L15.351,13.2L15.351,44.499L25.201,44.499L25.201,28.075C25.201,18.925 37.126,18.075 37.126,28.075L37.126,44.499L47.001,44.499L47.001,24.674C47.001,9.25 29.351,9.825 25.201,17.4L25.301,13.2Z" fill="#ffffff"/>
</svg>