<svg width="40" height="64" viewBox="0 0 40 64" fill="none" xmlns="http://www.w3.org/2000/svg" xmlns:xlink="http://www.w3.org/1999/xlink">
<path d="M17.429,51.269C16.6,51.269 15.929,51.941 15.929,52.769C15.929,53.598 16.6,54.269 17.429,54.269L17.429,51.269ZM22.571,54.269C23.4,54.269 24.071,53.598 24.071,52.769C24.071,51.941 23.4,51.269 22.571,51.269L22.571,54.269ZM7.143,2L7.143,0.5L7.143,2ZM17.429,54.269L22.571,54.269L22.571,51.269L17.429,51.269L17.429,54.269ZM7.143,3.5L32.857,3.5L32.857,0.5L7.143,0.5L7.143,3.5ZM32.857,3.5C33.873,3.5 34.818,3.863 35.492,4.468L37.496,2.235C36.24,1.109 34.57,0.5 32.857,0.5L32.857,3.5ZM35.492,4.468C36.16,5.068 36.5,5.845 36.5,6.615L39.5,6.615C39.5,4.938 38.756,3.367 37.496,2.235L35.492,4.468ZM36.5,6.615L36.5,57.385L39.5,57.385L39.5,6.615L36.5,6.615ZM36.5,57.385C36.5,58.155 36.16,58.932 35.492,59.532L37.496,61.765C38.756,60.633 39.5,59.062 39.5,57.385L36.5,57.385ZM35.492,59.532C34.818,60.137 33.873,60.5 32.857,60.5L32.857,63.5C34.57,63.5 36.24,62.891 37.496,61.765L35.492,59.532ZM32.857,60.5L7.143,60.5L7.143,63.5L32.857,63.5L32.857,60.5ZM7.143,60.5C6.127,60.5 5.182,60.137 4.508,59.532L2.504,61.765C3.76,62.891 5.43,63.5 7.143,63.5L7.143,60.5ZM4.508,59.532C3.84,58.932 3.5,58.155 3.5,57.385L0.5,57.385C0.5,59.062 1.244,60.633 2.504,61.765L4.508,59.532ZM3.5,57.385L3.5,6.615L0.5,6.615L0.5,57.385L3.5,57.385ZM3.5,6.615C3.5,5.845 3.84,5.068 4.508,4.468L2.504,2.235C1.244,3.367 0.5,4.938 0.5,6.615L3.5,6.615ZM4.508,4.468C5.182,3.863 6.127,3.5 7.143,3.5L7.143,0.5C5.43,0.5 3.76,1.109 2.504,2.235L4.508,4.468Z" fill="#0E1947"/>
</svg>
