<svg width="52" height="50" viewBox="0 0 52 50" fill="none" xmlns="http://www.w3.org/2000/svg" xmlns:xlink="http://www.w3.org/1999/xlink">
<path d="M26,-1C12.192,-1 1,10.192 1,24C1,37.807 12.192,49 26,49C39.807,49 51,37.807 51,24C51,10.192 39.807,-1 26,-1ZM6,24C6,19.838 7.3,15.779 9.717,12.39C12.134,9.002 15.548,6.451 19.483,5.095C23.419,3.739 27.679,3.645 31.671,4.825C35.662,6.005 39.186,8.401 41.751,11.68C44.316,14.958 45.794,18.955 45.98,23.113C46.165,27.271 45.049,31.384 42.785,34.877C40.522,38.371 37.226,41.071 33.355,42.602C29.484,44.133 25.232,44.418 21.192,43.417L22.987,34.982C24.705,36.472 26.837,37.04 28.885,37.003C31.13,36.96 33.385,36.202 35.272,35.015C37.152,33.833 38.832,32.115 39.752,29.998C40.747,27.715 41.157,25.22 40.947,22.739C40.736,20.258 39.912,17.869 38.547,15.786C37.182,13.703 35.321,11.993 33.13,10.81C30.94,9.626 28.489,9.007 25.999,9.007C23.509,9.007 21.058,9.627 18.868,10.811C16.677,11.995 14.816,13.706 13.452,15.788C12.088,17.871 11.264,20.261 11.054,22.742C10.844,25.223 11.255,27.717 12.25,30C12.374,30.311 12.56,30.593 12.795,30.831C13.031,31.069 13.312,31.257 13.622,31.384C13.932,31.511 14.264,31.574 14.599,31.57C14.933,31.566 15.264,31.495 15.571,31.361C15.878,31.228 16.154,31.033 16.385,30.79C16.615,30.547 16.794,30.261 16.911,29.947C17.029,29.634 17.082,29.3 17.068,28.965C17.054,28.631 16.973,28.303 16.83,28C16.237,26.638 15.955,25.161 16.005,23.676C16.055,22.191 16.435,20.736 17.118,19.416C17.8,18.097 18.768,16.946 19.951,16.048C21.134,15.149 22.503,14.525 23.957,14.222C25.411,13.919 26.915,13.943 28.359,14.293C29.802,14.644 31.15,15.311 32.303,16.248C33.456,17.184 34.386,18.366 35.026,19.707C35.665,21.048 35.998,22.514 36,24C36,26.737 34.975,29.293 32.607,30.783C31.387,31.553 30.01,31.983 28.792,32.003C27.6,32.028 26.687,31.667 26.055,31.005C25.435,30.355 24.752,29.1 24.752,26.75C24.752,25.25 25.325,24 26.01,20.77C26.084,20.447 26.093,20.112 26.036,19.785C25.98,19.458 25.859,19.146 25.68,18.867C25.502,18.587 25.27,18.346 24.997,18.157C24.725,17.968 24.417,17.835 24.093,17.766C23.769,17.697 23.434,17.693 23.108,17.755C22.782,17.817 22.472,17.942 22.195,18.125C21.918,18.308 21.681,18.544 21.496,18.82C21.311,19.095 21.183,19.405 21.12,19.73L16.47,41.588C13.302,39.871 10.656,37.331 8.813,34.235C6.971,31.139 5.998,27.603 6,24Z" clip-rule="evenodd" fill-rule="evenodd" fill="#FF5F31"/>
</svg>
